<?xml version="1.0" encoding="UTF-8" standalone="no"?>
<!-- Generator: Adobe Illustrator 24.1.2, SVG Export Plug-In . SVG Version: 6.00 Build 0)  -->

<svg
   version="1.1"
   id="Layer_1"
   x="0px"
   y="0px"
   viewBox="0 0 512 512"
   style="enable-background:new 0 0 512 512;"
   xml:space="preserve"
   sodipodi:docname="brochure-design.svg"
   inkscape:version="1.1 (c68e22c387, 2021-05-23)"
   xmlns:inkscape="http://www.inkscape.org/namespaces/inkscape"
   xmlns:sodipodi="http://sodipodi.sourceforge.net/DTD/sodipodi-0.dtd"
   xmlns="http://www.w3.org/2000/svg"
   xmlns:svg="http://www.w3.org/2000/svg"><defs
   id="defs31"><pattern
     id="EMFhbasepattern"
     patternUnits="userSpaceOnUse"
     width="6"
     height="6"
     x="0"
     y="0" /></defs><sodipodi:namedview
   id="namedview29"
   pagecolor="#ffffff"
   bordercolor="#666666"
   borderopacity="1.0"
   inkscape:pageshadow="2"
   inkscape:pageopacity="0.0"
   inkscape:pagecheckerboard="0"
   showgrid="false"
   inkscape:zoom="0.35907766"
   inkscape:cx="438.62378"
   inkscape:cy="296.59322"
   inkscape:window-width="1366"
   inkscape:window-height="705"
   inkscape:window-x="-8"
   inkscape:window-y="-8"
   inkscape:window-maximized="1"
   inkscape:current-layer="Layer_1"
   showguides="true"
   inkscape:guide-bbox="true"><sodipodi:guide
     position="64.052996,720.86847"
     orientation="1,0"
     id="guide1985" /><sodipodi:guide
     position="456.72571,498.07544"
     orientation="1,0"
     id="guide2067" /><sodipodi:guide
     position="526.34853,83.123417"
     orientation="0,-1"
     id="guide2071" /></sodipodi:namedview>
<style
   type="text/css"
   id="style2">
	.st0{fill:#FF5000;}
</style>

<g
   id="g8"
   transform="matrix(0.59162403,0,0,0.59162403,127.17358,108.71784)"
   style="fill:#00b9f3;fill-opacity:0.843137"><g
     id="g6"
     style="fill:#00b9f3;fill-opacity:0.843137"><path
       class="st0"
       d="m 464.4,428 c 4.1,0 7.5,-3.4 7.5,-7.5 V 71.6 c 0,-4.2 -3.4,-7.5 -7.5,-7.5 H 391.8 V 7.5 C 391.8,3.4 388.4,0 384.3,0 H 47.6 c -4.2,0 -7.5,3.4 -7.5,7.5 v 448.9 c 0,4.1 3.4,7.5 7.5,7.5 h 72.6 v 40.6 c 0,4.1 3.4,7.5 7.5,7.5 h 336.7 c 4.1,0 7.5,-3.4 7.5,-7.5 v -48.3 c 0,-4.1 -3.4,-7.5 -7.5,-7.5 -4.1,0 -7.5,3.4 -7.5,7.5 V 497 H 135.3 V 79.2 h 321.6 v 341.3 c 0,4.1 3.4,7.5 7.5,7.5 z M 125.9,64.3 c -3.3,0.8 -5.7,3.9 -5.7,7.3 V 448.8 H 55.1 V 15 H 323.2 Z M 376.7,64.1 H 188.8 l 187.9,-47 z"
       id="path4-8"
       style="fill:#00b9f3;fill-opacity:0.843137" /></g></g></svg>
