<?xml version="1.0" encoding="UTF-8" standalone="no"?>
<!-- Generator: Adobe Illustrator 24.1.2, SVG Export Plug-In . SVG Version: 6.00 Build 0)  -->

<svg
   version="1.1"
   id="Layer_1"
   x="0px"
   y="0px"
   viewBox="0 0 512 512"
   style="enable-background:new 0 0 512 512;"
   xml:space="preserve"
   sodipodi:docname="cloud-hosting.svg"
   inkscape:version="1.1 (c68e22c387, 2021-05-23)"
   xmlns:inkscape="http://www.inkscape.org/namespaces/inkscape"
   xmlns:sodipodi="http://sodipodi.sourceforge.net/DTD/sodipodi-0.dtd"
   xmlns="http://www.w3.org/2000/svg"
   xmlns:svg="http://www.w3.org/2000/svg"><defs
   id="defs31"><pattern
     id="EMFhbasepattern"
     patternUnits="userSpaceOnUse"
     width="6"
     height="6"
     x="0"
     y="0" /></defs><sodipodi:namedview
   id="namedview29"
   pagecolor="#ffffff"
   bordercolor="#666666"
   borderopacity="1.0"
   inkscape:pageshadow="2"
   inkscape:pageopacity="0.0"
   inkscape:pagecheckerboard="0"
   showgrid="false"
   inkscape:zoom="0.48840154"
   inkscape:cx="435.09281"
   inkscape:cy="134.11096"
   inkscape:window-width="1366"
   inkscape:window-height="705"
   inkscape:window-x="-8"
   inkscape:window-y="-8"
   inkscape:window-maximized="1"
   inkscape:current-layer="Layer_1"
   showguides="true"
   inkscape:guide-bbox="true"><sodipodi:guide
     position="64.052996,720.86847"
     orientation="1,0"
     id="guide1985" /><sodipodi:guide
     position="456.72571,498.07544"
     orientation="1,0"
     id="guide2067" /><sodipodi:guide
     position="526.34853,83.123417"
     orientation="0,-1"
     id="guide2071" /><sodipodi:guide
     position="-780,286"
     orientation="0,-1"
     id="guide21" /><sodipodi:guide
     position="159.77206,394.4078"
     orientation="1,0"
     id="guide23" /><sodipodi:guide
     position="401.92378,150.06708"
     orientation="1,0"
     id="guide25" /></sodipodi:namedview>
<style
   type="text/css"
   id="style2">
	.st0{fill:#FF5000;}
</style>

<path
   style="fill:#00b9f3;fill-opacity:0.843137;stroke-width:0.642599"
   d="m 158.72256,426.32725 c -4.01784,-1.23857 -7.84843,-4.71171 -9.6888,-8.78468 -1.47129,-3.25615 -1.53701,-4.00607 -1.53701,-17.53877 0,-10.33234 0.23706,-14.80833 0.88081,-16.63092 1.23247,-3.48939 4.96683,-7.39831 8.75818,-9.16759 l 3.21299,-1.49939 h 96.7111 96.71112 l 3.21769,1.4984 c 1.76971,0.82411 4.19154,2.60757 5.38183,3.96322 4.06424,4.62894 4.24063,5.52267 4.24687,21.51498 0.006,13.87774 -0.0559,14.5951 -1.53138,17.86007 -1.89091,4.18476 -5.69715,7.557 -9.95771,8.82225 -4.65961,1.38376 -191.9112,1.34793 -196.40569,-0.0376 z m 193.75246,-10.5757 c 3.10697,-1.18125 3.66886,-3.97618 3.43405,-17.08085 -0.20428,-11.4015 -0.25518,-11.78716 -1.76817,-13.39632 l -1.55786,-1.65685 h -95.52321 -95.52317 l -1.55787,1.65689 c -1.50257,1.5981 -1.56553,2.04583 -1.77404,12.61587 -0.24844,12.59425 0.0379,14.84556 2.15736,16.96508 l 1.5347,1.5347 h 94.44942 c 61.00801,0 95.04402,-0.22608 96.12879,-0.63852 z m -22.18463,-6.62461 c -7.65624,-4.04873 -7.42118,-15.03282 0.40118,-18.74476 3.10079,-1.47143 7.73406,-1.05767 10.54151,0.94139 2.36219,1.68206 4.4703,5.78426 4.49131,8.73981 0.0231,3.27944 -2.58299,7.39218 -5.74361,9.06356 -3.53879,1.87137 -6.15153,1.87137 -9.69039,0 z m -158.05358,-4.10923 c -3.9714,-1.47503 -5.05713,-5.88622 -2.16147,-8.78188 l 1.69412,-1.69412 h 54.15485 54.15483 l 1.72056,2.04476 c 1.97894,2.35182 1.84644,5.06954 -0.3544,7.27069 -1.26547,1.26564 -2.19203,1.28938 -54.76592,1.40299 -29.41327,0.0635 -53.91243,-0.0456 -54.44257,-0.24244 z m 122.96576,-0.18901 c -3.55094,-1.43298 -4.45661,-5.88452 -1.74825,-8.59287 1.67165,-1.67168 1.81521,-1.69412 10.83749,-1.69412 8.27712,0 9.3038,0.12618 10.83659,1.33183 1.22634,0.96467 1.69312,1.92455 1.69312,3.48174 0,5.22732 -1.82279,6.12406 -12.33809,6.06987 -4.34705,-0.0224 -8.52343,-0.29081 -9.28086,-0.59645 z m -134.3228,-43.72443 c -5.38923,-1.07811 -9.67557,-4.49883 -12.04117,-9.60947 -1.23508,-2.66824 -1.34185,-4.04937 -1.34185,-17.35738 v -14.45847 l 1.8373,-3.74173 c 1.95607,-3.98359 5.10808,-6.78836 9.29827,-8.27391 1.89693,-0.67252 21.23968,-0.83634 98.74881,-0.83634 h 96.38982 l 2.89889,1.34185 c 3.69289,1.70935 6.9019,4.91834 8.61128,8.61122 1.23507,2.66824 1.34181,4.04937 1.34181,17.35738 0,13.30801 -0.10674,14.68914 -1.34181,17.35738 -1.70938,3.69288 -4.91839,6.90188 -8.61128,8.61123 -2.89535,1.3402 -3.01507,1.34195 -98.00351,1.43831 -52.30753,0.0531 -96.31148,-0.14498 -97.78656,-0.44007 z m 193.03731,-12.36104 1.78167,-1.78047 0.21225,-11.13266 c 0.2573,-13.50071 -0.26578,-16.15766 -3.44247,-17.48496 -1.86128,-0.77771 -16.20203,-0.91529 -95.4087,-0.91529 -102.52458,0 -96.79835,-0.22631 -98.23064,3.88236 -0.96772,2.776 -0.96821,22.87301 -6.2e-4,25.64862 1.42033,4.07437 -4.46909,3.85421 99.01999,3.70176 l 94.28685,-0.1389 z m -24.25007,-5.77008 c -3.64894,-2.4834 -4.813,-4.62044 -4.813,-8.83573 0,-2.80988 0.34006,-4.22029 1.34431,-5.57562 4.72837,-6.38148 13.14622,-6.38148 17.8746,0 1.00418,1.35533 1.34425,2.76574 1.34425,5.57562 0,4.21529 -1.16407,6.35233 -4.81294,8.83573 -1.53105,1.04205 -3.05838,1.44585 -5.46864,1.44585 -2.41026,0 -3.93753,-0.4038 -5.46858,-1.44585 z m -159.7085,-5.27223 c -2.04265,-2.04263 -2.05306,-4.86646 -0.0266,-7.22261 l 1.55066,-1.80298 52.46516,-0.17531 c 35.46203,-0.1185 53.28464,0.0454 54.99376,0.50556 4.33735,1.16793 5.65397,5.87062 2.52079,9.00378 -1.24343,1.24339 -2.35892,1.26885 -55.59767,1.26885 H 171.5358 Z m 123.37898,0 c -3.21672,-3.21669 -1.15147,-8.12318 3.81106,-9.05415 1.27543,-0.23927 5.48156,-0.3268 9.34705,-0.19449 6.36674,0.21792 7.18316,0.38631 8.67701,1.78966 2.19332,2.06053 2.26947,5.65887 0.16168,7.63906 -1.38808,1.30401 -2.11871,1.39721 -10.95342,1.39721 -9.19366,0 -9.51149,-0.0454 -11.04338,-1.57729 z M 157.13106,294.07054 c -3.54004,-1.64851 -6.99637,-5.17419 -8.55231,-8.72389 -1.34138,-3.06021 -1.89629,-24.73737 -0.77867,-30.41812 1.24845,-6.34576 4.68297,-10.64634 10.12993,-12.68431 3.37298,-1.26199 5.04294,-1.28363 99.03948,-1.28363 105.88556,0 98.8047,-0.28479 104.0253,4.18381 1.41777,1.21355 3.23799,3.69972 4.09117,5.58787 1.47528,3.26496 1.53677,3.98232 1.53138,17.86007 -0.006,15.99231 -0.18263,16.88604 -4.24687,21.51498 -1.19029,1.35566 -3.61212,3.13911 -5.38183,3.96322 l -3.21769,1.4984 h -96.71112 -96.7111 z m 196.76475,-10.96301 1.80294,-1.5498 0.21617,-11.06607 c 0.24823,-12.70524 -0.0353,-14.95033 -2.15733,-17.07219 l -1.53472,-1.5347 h -95.16304 -95.16302 l -1.5347,1.5347 c -2.12186,2.12186 -2.40556,4.36695 -2.15736,17.07219 l 0.21618,11.06607 1.80298,1.5498 1.80299,1.54978 h 95.03293 95.03298 z m -22.62925,-4.21355 c -4.8094,-1.09039 -8.27313,-5.39347 -8.25559,-10.25613 0.0212,-5.81148 3.69893,-9.70759 9.62831,-10.1993 6.55239,-0.54337 11.17139,3.85504 11.17139,10.63783 0,6.52493 -6.07969,11.28321 -12.54411,9.8176 z m -162.01414,-6.68407 c -2.29006,-1.96983 -2.44847,-5.53882 -0.33945,-7.6481 l 1.4314,-1.43157 53.15737,-0.18056 c 29.23655,-0.0993 53.80002,-0.0235 54.5854,0.16843 4.00539,0.97884 5.30961,5.95121 2.33996,8.9209 l -1.69414,1.69412 h -53.85485 -53.85483 z m 120.87208,-0.054 c -0.96506,-0.96506 -1.57732,-2.31655 -1.57732,-3.48176 0,-4.99796 1.90286,-5.86516 12.86951,-5.86516 h 8.43514 l 1.87832,1.87836 c 2.41964,2.41961 2.48557,5.0504 0.18429,7.3517 -1.67371,1.67367 -1.80596,1.69412 -10.95341,1.69412 -8.97402,0 -9.30785,-0.0486 -10.83653,-1.57729 z M 121.1502,255.82418 c -16.37871,-4.71471 -27.893151,-19.9994 -27.941891,-37.09107 -0.0145,-5.07749 1.9852,-12.80474 4.61029,-17.81535 3.075731,-5.87077 10.577141,-13.1491 16.584321,-16.09114 6.4218,-3.14511 13.03067,-4.50585 19.41257,-3.99698 4.89309,0.39016 12.02792,2.23186 15.43391,3.98392 1.99846,1.02803 1.75134,1.57108 2.97757,-6.54321 1.70526,-11.28415 8.85646,-22.76131 18.39438,-29.52164 8.93281,-6.33144 16.89071,-8.89843 27.64071,-8.91608 8.21189,-0.0135 13.78488,1.20534 20.51455,4.48658 2.44728,1.19322 4.50406,2.09944 4.57063,2.0138 0.0666,-0.0856 1.04824,-2.11854 2.18147,-4.51755 5.05743,-10.70632 15.9839,-23.47344 25.66156,-29.98444 13.36304,-8.99044 26.94629,-13.141049 43.14029,-13.182291 21.58329,-0.05494 39.06532,7.165071 54.32582,22.436441 14.82443,14.83504 22.24163,32.41554 22.3235,52.91218 0.0302,7.52566 0.15525,8.49418 1.05161,8.13945 0.55957,-0.22145 3.61995,-0.71082 6.80081,-1.08748 11.48916,-1.36048 22.0378,2.44368 30.5451,11.01548 9.65987,9.73314 13.33457,21.91433 10.58258,35.07995 -3.46303,16.56687 -19.33728,29.88085 -35.6269,29.88085 -3.33984,0 -4.1972,-0.24454 -5.52995,-1.57729 -2.40171,-2.40172 -1.91372,-6.50603 0.95625,-8.04197 0.67036,-0.35879 3.33856,-0.95176 5.92933,-1.31772 12.49469,-1.765 21.95335,-10.92147 23.83424,-23.07272 2.31657,-14.96637 -8.05787,-28.76064 -23.33578,-31.02822 -5.77658,-0.85736 -10.93735,0.0935 -16.90202,3.11412 -5.38498,2.72706 -8.28734,2.74622 -10.27869,0.0679 -1.24491,-1.67434 -1.27183,-2.03175 -0.48465,-6.42598 1.62533,-9.07266 2.02303,-15.32895 1.33494,-20.99907 -4.96825,-40.93903 -44.98237,-67.34635 -84.14561,-55.53189 -17.4731,5.27116 -32.06061,17.67052 -40.10787,34.09172 -1.17808,2.40408 -2.63354,5.87285 -3.23427,7.70835 -2.35583,7.19814 -5.65998,8.48338 -11.3325,4.40808 -6.74995,-4.84935 -12.7035,-7.10958 -20.45232,-7.7646 -16.51507,-1.39603 -32.01436,9.57075 -37.20821,26.32728 -1.50898,4.86832 -1.31304,14.41581 0.40304,19.63777 1.73681,5.28509 1.72563,5.96321 -0.13401,8.12517 -1.14985,1.33678 -2.10364,1.77085 -3.89115,1.77085 -2.13184,0 -2.81564,-0.49067 -6.85826,-4.92138 -7.14729,-7.83338 -15.11204,-10.97499 -24.34871,-9.60407 -14.74375,2.18829 -24.43346,13.9415 -23.65897,28.69734 0.7233,13.78075 10.86463,23.90068 25.82131,25.76683 5.68983,0.70993 8.12905,5.47058 4.60737,8.99226 -1.37728,1.37727 -2.13104,1.57148 -5.94404,1.53151 -2.40171,-0.0252 -6.10177,-0.54522 -8.22235,-1.15564 z m 89.6552,-26.59759 c -3.03533,-1.56537 -3.20606,-2.7473 -3.21619,-22.26491 l -0.009,-18.25527 -4.12128,3.95745 c -3.65159,3.50644 -4.41523,3.95745 -6.70065,3.95745 -2.02116,0 -2.8676,-0.36642 -3.91121,-1.69316 -2.80966,-3.5719 -2.18189,-4.7434 8.09097,-15.09887 9.97794,-10.05818 11.53608,-11.03998 14.7884,-9.31836 2.60982,1.38151 18.01443,17.10798 18.78594,19.17841 0.79554,2.13501 -0.18243,5.38578 -1.89616,6.30295 -0.64645,0.34597 -2.14323,0.62903 -3.32617,0.62903 -1.77644,0 -2.81491,-0.6711 -5.96617,-3.85559 -2.09845,-2.12058 -4.04129,-3.8556 -4.31743,-3.8556 -0.27613,0 -0.50206,8.4801 -0.50206,18.84466 0,18.71432 -0.01,18.85398 -1.44585,20.19422 -1.92539,1.79719 -4.3031,2.28302 -6.25267,1.27759 z m 87.70206,-0.11365 c -2.54919,-1.15466 -18.06275,-16.88792 -18.92049,-19.18844 -0.96531,-2.58905 0.57191,-6.0335 2.97382,-6.66341 3.03544,-0.79606 4.22766,-0.26268 8.25277,3.69217 2.13008,2.09287 4.08198,3.80522 4.33754,3.80522 0.25556,0 0.47385,-8.4582 0.4851,-18.79601 0.0148,-13.76154 0.23011,-19.06911 0.80324,-19.8156 2.15419,-2.8057 6.27485,-3.038 8.58802,-0.48414 1.09312,1.20682 1.20738,2.87631 1.38795,20.27264 l 0.19676,18.95751 4.08513,-3.92279 c 3.90147,-3.74637 4.80657,-4.21017 7.73072,-3.9615 1.93287,0.16438 4.17689,3.025 4.17689,5.3245 0,1.70931 -1.28847,3.30476 -8.83573,10.94078 -7.93218,8.02547 -11.26122,10.81373 -12.82004,10.73743 -0.28262,-0.0138 -1.3814,-0.4181 -2.44168,-0.89836 z"
   id="path8945" /></svg>
