<?xml version="1.0" encoding="UTF-8" standalone="no"?>
<!-- Generator: Adobe Illustrator 24.1.2, SVG Export Plug-In . SVG Version: 6.00 Build 0)  -->

<svg
   version="1.1"
   id="Layer_1"
   x="0px"
   y="0px"
   viewBox="0 0 512 512"
   style="enable-background:new 0 0 512 512;"
   xml:space="preserve"
   sodipodi:docname="codeigniter-development.svg"
   inkscape:version="1.1 (c68e22c387, 2021-05-23)"
   xmlns:inkscape="http://www.inkscape.org/namespaces/inkscape"
   xmlns:sodipodi="http://sodipodi.sourceforge.net/DTD/sodipodi-0.dtd"
   xmlns="http://www.w3.org/2000/svg"
   xmlns:svg="http://www.w3.org/2000/svg"><defs
   id="defs31"><pattern
     id="EMFhbasepattern"
     patternUnits="userSpaceOnUse"
     width="6"
     height="6"
     x="0"
     y="0" /></defs><sodipodi:namedview
   id="namedview29"
   pagecolor="#ffffff"
   bordercolor="#666666"
   borderopacity="1.0"
   inkscape:pageshadow="2"
   inkscape:pageopacity="0.0"
   inkscape:pagecheckerboard="0"
   showgrid="false"
   inkscape:zoom="0.5"
   inkscape:cx="177"
   inkscape:cy="299"
   inkscape:window-width="1366"
   inkscape:window-height="705"
   inkscape:window-x="-8"
   inkscape:window-y="-8"
   inkscape:window-maximized="1"
   inkscape:current-layer="Layer_1"
   showguides="true"
   inkscape:guide-bbox="true"><sodipodi:guide
     position="64.052996,720.86847"
     orientation="1,0"
     id="guide1985" /><sodipodi:guide
     position="456.72571,498.07544"
     orientation="1,0"
     id="guide2067" /><sodipodi:guide
     position="526.34853,83.123417"
     orientation="0,-1"
     id="guide2071" /><sodipodi:guide
     position="-780,286"
     orientation="0,-1"
     id="guide21" /><sodipodi:guide
     position="159.77206,394.4078"
     orientation="1,0"
     id="guide23" /><sodipodi:guide
     position="401.92378,150.06708"
     orientation="1,0"
     id="guide25" /></sodipodi:namedview>
<style
   type="text/css"
   id="style2">
	.st0{fill:#FF5000;}
</style>

<path
   d="m 98.740499,439.1203 c -7.151857,0 -9.23117,-4.16411 -9.23117,-10.40342 0,-2.07931 0.2611,-4.42524 0.582682,-6.89623 1.566714,-10.7896 5.391374,-16.96295 14.622549,-16.96295 6.24341,0 9.28749,2.79259 9.28749,7.86376 v 2.47233 h 6.19396 c 0.0687,0 0.0687,-2.27583 0.0687,-2.79393 0,-7.41021 -4.48706,-14.43838 -15.54054,-14.43838 -15.019676,0 -21.195767,8.15919 -23.471611,24.15467 -0.325711,2.14664 -0.520866,4.15036 -0.520866,6.28876 0,9.42767 3.70922,18.00329 16.971213,18.00329 10.076324,0 16.061404,-4.91312 19.569984,-10.96002 l -5.91773,-3.98547 c -3.83429,6.04827 -7.99839,7.65759 -12.614661,7.65759 z m 40.637941,-29.77825 c -12.0306,0 -17.22819,6.17332 -18.98316,18.45956 a 32.055479,32.055479 0 0 0 -0.32985,4.29329 c 0,7.9297 3.70649,14.24048 13.97662,14.24048 12.03059,0 17.29826,-6.43858 19.05326,-18.53377 0.19514,-1.55846 0.32569,-2.98912 0.32569,-4.41838 0.002,-8.06025 -3.8315,-14.04118 -14.04256,-14.04118 z m 5.00659,18.46366 c -1.30149,8.90956 -4.09406,11.6403 -9.36449,11.6403 -4.2232,0 -6.30251,-1.75635 -6.30251,-7.02267 0,-1.30144 0.13198,-2.85989 0.39027,-4.61763 1.30147,-8.84085 3.90163,-11.57158 9.23254,-11.57158 4.29194,0 6.43448,1.75499 6.43448,7.0859 0,1.30006 -0.13198,2.79669 -0.39029,4.48568 z m 39.27739,-29.1983 -2.01334,11.93578 c -0.12927,1.03758 -0.0632,0.69264 0.32981,1.66839 -1.88552,-1.42928 -5.26903,-2.37478 -7.54486,-2.37478 -10.79373,0 -16.8379,4.88562 -18.78666,18.53926 a 26.680603,26.680603 0 0 0 -0.32571,4.3579 c 0,9.95127 5.85038,13.66049 13.7155,13.66049 3.3203,0 6.56912,0.0687 9.10197,-2.0738 l 0.64728,4.04457 h 6.24342 l 7.28103,-49.75781 z m -6.17609,38.95032 c -2.92313,1.75085 -5.78167,2.14665 -7.53665,2.14665 -4.74681,0 -6.04691,-2.47238 -6.04691,-6.43583 0,-1.4966 0.19514,-3.24745 0.45765,-5.13849 1.49249,-10.33609 4.81003,-12.15979 9.10196,-12.15979 2.79259,0 4.93647,0.45764 6.95669,1.56533 z m 33.81181,-28.21568 c -11.90142,0 -17.48792,5.65247 -19.3762,18.45956 -0.19791,1.56254 -0.32847,3.05916 -0.32847,4.48845 0,8.77763 4.48847,14.0453 14.36691,14.0453 7.6727,0 13.3994,-3.18836 16.45309,-9.04013 l -6.56777,-2.66614 c -1.88279,2.85856 -4.41837,4.81006 -8.90545,4.81006 -4.81003,0 -6.76154,-1.2946 -6.76154,-5.58654 0,-0.84655 0.0659,-2.07656 0.19652,-2.07656 h 23.46752 c 0.32981,-3.31754 0.71462,-5.66208 0.71462,-7.60671 0,-6.49768 -2.46825,-14.82868 -13.25923,-14.82868 z m 4.48434,15.80304 h -14.30369 c 1.43339,-3.31756 3.8343,-8.45195 8.77765,-8.45195 3.83428,0 5.72257,2.2415 5.72257,6.07715 -0.003,0.65006 -0.0632,2.3748 -0.19653,2.3748 z m 33.79534,-16.58641 0.77925,-6.63372 h -18.33728 l -0.77647,6.63372 h 4.81005 l -5.19761,33.17142 h -4.8169 l -0.7751,6.63511 h 18.33312 l 0.78335,-6.63511 h -4.81414 l 5.19895,-33.17142 z m 37.25719,9.95129 2.34319,-6.63375 h -6.30666 l -4.54756,0.93867 c -2.53694,-1.62166 -5.98367,-2.8393 -9.23112,-2.8393 -9.30126,0 -17.22959,4.4912 -17.22959,14.70088 0,2.86403 1.03897,5.17559 2.27172,6.73813 -1.946,1.03762 -3.63775,2.77611 -3.63775,5.12067 0,1.03897 0.38754,2.10264 1.17089,3.07568 -3.90438,2.34453 -6.30251,6.22969 -6.30251,10.77723 0,8.78177 9.16516,10.65494 16.18646,10.65494 8.84085,0 19.37621,-2.02023 19.37621,-13.26886 0,-3.83428 -2.40503,-6.83026 -9.36173,-8.13035 l -12.54731,-2.34453 c -1.42928,-0.26251 -1.75498,-0.71739 -1.75498,-1.36744 0,-0.97575 0.59094,-1.49248 1.5612,-1.49248 l 0.84657,0.12912 c 1.69037,0.38895 3.64188,0.58684 5.65524,0.58684 9.04011,0 17.10037,-3.90301 17.10037,-14.04532 0,-1.43202 -0.25837,-2.4009 -0.90842,-3.96349 1.10356,0.52223 2.53695,1.36743 3.11691,1.36743 h 2.19887 z m -17.87547,26.91286 c 2.46824,0.45764 3.31205,1.36605 3.31205,2.99185 0,5.26768 -5.65661,5.91773 -9.75064,5.91773 -6.24206,0 -8.58111,-1.4925 -8.58111,-4.81281 0,-2.92724 0.84244,-4.28915 2.7967,-6.3726 z m -2.67027,-17.03029 c -3.77106,0 -5.85174,-1.36331 -5.85174,-4.61762 0,-4.81006 2.79668,-7.60675 7.6727,-7.60675 3.90162,0 5.78852,1.6258 5.78852,4.80728 0,4.8128 -2.73347,7.41709 -7.60948,7.41709 z m 43.64355,-19.05049 c -3.64187,0 -6.88933,1.78658 -10.9229,4.96944 l -0.58408,-2.43527 h -7.15459 l -5.00519,36.48762 h 8.64707 l 3.77245,-27.67011 c 2.53696,-1.55982 5.65525,-3.82468 8.32137,-3.82468 3.24885,0 4.42249,1.5681 4.42249,4.5572 0,0.71599 -0.0687,2.83654 -0.19927,3.61576 l -3.1815,23.32184 h 8.64846 l 3.18147,-23.5115 c 0.132,-1.09943 0.26113,-2.91212 0.26113,-3.94972 0.003,-6.18433 -2.92586,-11.56058 -10.20691,-11.56058 z m 26.63387,29.88132 0.0659,-0.89331 3.76833,-26.45384 h -14.3696 l -0.90566,6.63375 h 6.30252 c -0.52086,0 -0.84518,0.58134 -0.90842,1.10493 l -2.60155,17.6185 c -0.12912,0.84793 -0.19238,2.61253 -0.19238,3.32306 0,4.55029 2.46825,7.80875 7.53665,7.80875 h 4.42248 l 0.97574,-6.63511 h -2.79392 c -0.97851,0 -1.3001,-1.72749 -1.3001,-2.50673 z m 5.58927,-40.61596 h -8.45194 c -0.52085,0 -0.52085,-1.9144 -0.58406,-1.26437 l -1.17367,9.34798 c -0.0673,0.58821 -0.0673,1.86905 0.45353,1.86905 h 8.45605 c 0.52087,0 0.52087,-2.27308 0.5841,-2.86403 l 1.17363,-7.21506 c 0.0659,-0.65005 0.0659,0.1264 -0.45764,0.1264 z m 17.63361,40.83722 c -2.14254,0 -3.18425,-0.91115 -3.18425,-2.85853 l 0.0659,-0.13333 2.73073,-17.94282 h 9.88119 l 2.9891,-6.63375 h -11.96188 l 2.01334,-14.59913 -9.09784,2.90937 -1.62856,11.68976 h -5.26492 l -0.90842,6.63375 h 6.11013 c -0.58409,3.31754 -1.17088,1.1654 -1.23411,1.8182 l -2.34181,15.73293 c -0.12912,0.71739 -0.12912,1.23686 -0.12912,1.88417 0,6.17747 4.55029,8.48903 10.01725,8.48903 5.0684,0 9.16519,-1.4801 12.35356,-4.15039 l -4.03357,-4.9612 c -2.02022,1.23275 -3.38352,2.12191 -6.37675,2.12191 z m 31.7284,-30.10258 c -11.89729,0 -17.48794,5.65247 -19.37485,18.45956 -0.19515,1.56254 -0.32569,3.05916 -0.32569,4.48845 0,8.77763 4.48569,14.0453 14.36688,14.0453 7.67271,0 13.39941,-3.18836 16.45035,-9.04013 l -6.565,-2.66614 c -1.88281,2.85856 -4.42114,4.81006 -8.90959,4.81006 -4.8073,0 -6.76155,-1.2946 -6.76155,-5.58654 0,-0.84655 0.0703,-2.07656 0.20065,-2.07656 h 23.46887 c 0.32435,-3.31754 0.71464,-5.66208 0.71464,-7.60671 0,-6.49768 -2.46961,-14.82868 -13.26471,-14.82868 z m 4.48845,15.80304 h -14.3037 c 1.4293,-3.31756 3.83156,-8.45195 8.77766,-8.45195 3.83429,0 5.72256,2.2415 5.72256,6.07715 -0.003,0.65006 -0.0673,2.3748 -0.19652,2.3748 z m 32.70414,-15.80443 c -3.12102,0 -6.0469,1.78933 -8.97416,4.57916 l -0.51948,-2.0436 h -7.14911 l -5.00793,36.48762 h 8.71305 l 3.8343,-28.25556 c 2.27721,-1.36193 4.87737,-2.52595 7.34836,-2.52595 1.56257,0 3.05506,-0.24874 4.48433,-0.0548 l 1.11182,-7.53803 c -1.30695,-0.25973 -2.60706,-0.64729 -3.84118,-0.64729 z M 207.90913,372.47239 c -19.67993,-8.50688 -38.09551,-30.12732 -38.13948,-52.24938 -0.0536,-24.11891 15.23134,-44.59594 34.24197,-58.05307 -2.28544,8.63471 -3.53193,16.53281 2.13015,24.25636 5.26359,7.1807 14.48237,10.67003 23.18716,8.77625 20.33959,-4.45272 21.27274,-26.81253 9.21466,-39.83949 -11.92202,-12.90054 -23.45512,-27.47221 -18.91719,-46.1805 2.27171,-9.37821 8.03,-18.16272 15.32478,-24.4419 -5.60713,14.73522 10.32647,29.26703 20.82471,36.50547 18.21081,12.55833 38.19172,22.04922 54.93617,36.77069 17.61299,15.47183 30.61933,36.39139 27.99305,60.65461 -2.84617,26.29852 -23.74374,44.58907 -47.18374,53.82296 49.53241,-10.93254 100.7126,-49.37576 101.76118,-104.30914 0.86856,-45.19377 -30.13421,-79.97448 -68.53892,-99.88667 l -2.00649,-1.0953 c 1.0541,2.55755 1.39906,4.73308 1.3592,6.68046 0.34357,-1.43614 0.57721,-2.91212 0.64316,-4.43486 a 21.614944,21.614944 0 0 1 -0.70365,5.35977 l 0.0604,-0.92491 a 22.515107,22.515107 0 0 1 -2.8434,6.77666 l 0.56345,-0.60606 c -7.66171,12.70811 -28.40396,15.4677 -38.65071,2.30881 -16.47235,-21.16693 0.34495,-43.98849 2.69772,-66.40328 2.94512,-28.092008 -14.67198,-55.363569 -36.51506,-71.683341 12.03059,19.461436 -3.81918,45.208866 -16.49982,59.603251 -12.29583,13.95325 -27.24956,25.60317 -40.82349,38.28105 -14.58126,13.61654 -28.59912,27.96009 -40.58434,43.94177 -23.97051,31.98813 -38.64525,72.21933 -27.86117,112.12616 10.77726,39.87933 45.3216,65.26536 84.33101,74.24227 z"
   fill="#ee4323"
   id="path29761"
   style="fill:#00b9f3;fill-opacity:0.843137;stroke-width:1.37429" /></svg>
