<?xml version="1.0" encoding="UTF-8" standalone="no"?>
<!-- Generator: Adobe Illustrator 24.1.2, SVG Export Plug-In . SVG Version: 6.00 Build 0)  -->

<svg
   version="1.1"
   id="Layer_1"
   x="0px"
   y="0px"
   viewBox="0 0 512 512"
   style="enable-background:new 0 0 512 512;"
   xml:space="preserve"
   sodipodi:docname="dedicated-server-hosting.svg"
   inkscape:version="1.1 (c68e22c387, 2021-05-23)"
   xmlns:inkscape="http://www.inkscape.org/namespaces/inkscape"
   xmlns:sodipodi="http://sodipodi.sourceforge.net/DTD/sodipodi-0.dtd"
   xmlns="http://www.w3.org/2000/svg"
   xmlns:svg="http://www.w3.org/2000/svg"><defs
   id="defs31"><pattern
     id="EMFhbasepattern"
     patternUnits="userSpaceOnUse"
     width="6"
     height="6"
     x="0"
     y="0" /></defs><sodipodi:namedview
   id="namedview29"
   pagecolor="#ffffff"
   bordercolor="#666666"
   borderopacity="1.0"
   inkscape:pageshadow="2"
   inkscape:pageopacity="0.0"
   inkscape:pagecheckerboard="0"
   showgrid="false"
   inkscape:zoom="0.48840154"
   inkscape:cx="-90.089805"
   inkscape:cy="134.11096"
   inkscape:window-width="1366"
   inkscape:window-height="705"
   inkscape:window-x="-8"
   inkscape:window-y="-8"
   inkscape:window-maximized="1"
   inkscape:current-layer="Layer_1"
   showguides="true"
   inkscape:guide-bbox="true"><sodipodi:guide
     position="64.052996,720.86847"
     orientation="1,0"
     id="guide1985" /><sodipodi:guide
     position="456.72571,498.07544"
     orientation="1,0"
     id="guide2067" /><sodipodi:guide
     position="526.34853,83.123417"
     orientation="0,-1"
     id="guide2071" /><sodipodi:guide
     position="-780,286"
     orientation="0,-1"
     id="guide21" /><sodipodi:guide
     position="159.77206,394.4078"
     orientation="1,0"
     id="guide23" /><sodipodi:guide
     position="401.92378,150.06708"
     orientation="1,0"
     id="guide25" /></sodipodi:namedview>
<style
   type="text/css"
   id="style2">
	.st0{fill:#FF5000;}
</style>

<path
   style="fill:#00b9f3;fill-opacity:0.843137;stroke-width:0.607473"
   d="m 112.2732,407.62503 c -4.18217,-1.27925 -7.91825,-4.43988 -10.10323,-8.54709 -1.05795,-1.98869 -1.14217,-4.32106 -1.30257,-36.07357 -0.19098,-37.80439 -0.16663,-38.08007 3.76746,-42.67618 3.59378,-4.19852 6.95886,-5.24984 17.81744,-5.56653 l 9.26397,-0.27018 v -7.4559 -7.4559 l -9.5677,-0.24873 c -10.68373,-0.27773 -12.37568,-0.73235 -16.46057,-4.4228 -1.58644,-1.43325 -2.91522,-3.4197 -3.71192,-5.54908 -1.19427,-3.19196 -1.24093,-4.57121 -1.24093,-36.6821 0,-32.1109 0.0466,-33.49014 1.24093,-36.68211 0.7967,-2.12938 2.12548,-4.11582 3.71192,-5.54907 4.08489,-3.69046 5.77684,-4.14507 16.46057,-4.42281 l 9.5677,-0.24873 v -7.45589 -7.4559 l -9.26397,-0.27018 c -10.85858,-0.31669 -14.22366,-1.36801 -17.81744,-5.56654 -3.93409,-4.5961 -3.95844,-4.87178 -3.76746,-42.67618 0.16912,-33.48 0.18957,-33.98086 1.48507,-36.3773 1.54851,-2.86447 4.52687,-5.79464 7.49477,-7.373529 2.05643,-1.09399 6.85796,-1.13109 146.40097,-1.13109 h 144.27482 l 2.42989,1.31358 c 2.86448,1.548509 5.79465,4.526869 7.37354,7.494779 1.05795,1.98868 1.14217,4.32106 1.30257,36.07356 0.19098,37.8044 0.16663,38.08008 -3.76746,42.67618 -3.59378,4.19853 -6.95886,5.24985 -17.81744,5.56654 l -9.26397,0.27018 v 7.4559 7.45589 l 9.5677,0.24873 c 10.68373,0.27774 12.37568,0.73235 16.46057,4.42281 1.58644,1.43325 2.91522,3.41969 3.71192,5.54907 1.19427,3.19197 1.24093,4.57121 1.24093,36.68211 0,32.11089 -0.0466,33.49014 -1.24093,36.6821 -0.7967,2.12938 -2.12548,4.11583 -3.71192,5.54908 -4.08489,3.69045 -5.77684,4.14507 -16.46057,4.4228 l -9.5677,0.24873 v 7.4559 7.4559 l 9.26397,0.27018 c 10.85858,0.31669 14.22366,1.36801 17.81744,5.56653 3.93409,4.59611 3.95844,4.87179 3.76746,42.67618 -0.1604,31.75251 -0.24462,34.08488 -1.30257,36.07357 -1.57889,2.9679 -4.50906,5.94626 -7.37354,7.49477 l -2.42989,1.31358 -143.36361,0.10223 c -78.84998,0.0563 -144.04878,-0.10734 -144.88622,-0.36349 z m 287.38535,-11.53773 1.77569,-1.77569 v -32.20325 c 0,-19.86122 -0.23134,-32.8117 -0.60361,-33.79085 -1.3545,-3.56262 7.76366,-3.35127 -144.58242,-3.35127 -152.34607,0 -143.22791,-0.21135 -144.58241,3.35127 -0.37227,0.97915 -0.60361,13.92963 -0.60361,33.79085 v 32.20325 l 1.77569,1.77569 1.77569,1.77569 H 256.24821 397.88286 Z M 287.22933,382.37243 v -5.16352 h 5.16352 5.16352 v 5.16352 5.16352 h -5.16352 -5.16352 z m 20.65409,0 v -5.16352 h 5.16352 5.16352 v 5.16352 5.16352 h -5.16352 -5.16352 z m 21.26155,0 v -5.16352 h 4.85978 4.85978 v 5.16352 5.16352 h -4.85978 -4.85978 z m 20.65408,0 v -5.16352 h 5.16352 5.16352 v 5.16352 5.16352 h -5.16352 -5.16352 z m 20.65407,0 v -5.16352 h 5.16352 5.16352 v 5.16352 5.16352 h -5.16352 -5.16352 z m -227.30388,-6.01094 c -9.59614,-2.58389 -14.02041,-13.40398 -9.15557,-22.39105 5.805,-10.72386 21.49427,-10.24274 27.22269,0.8348 l 0.90475,1.74959 h 53.05636 c 52.75585,0 53.06542,0.007 54.65696,1.25904 1.1834,0.93086 1.6006,1.81215 1.6006,3.38104 0,2.88207 -0.83044,4.21913 -3.11519,5.0156 -1.34852,0.47009 -17.62972,0.67136 -54.30794,0.67136 h -52.38206 l -0.74855,1.80716 c -1.19525,2.88559 -5.57558,6.50028 -9.17098,7.56801 -3.75922,1.11636 -4.75775,1.12854 -8.56107,0.10445 z m 7.85429,-11.45296 c 1.88753,-1.76184 1.83057,-4.90781 -0.12425,-6.86262 -3.82155,-3.82156 -10.35986,0.57443 -8.13081,5.46668 1.53715,3.37367 5.43085,4.0321 8.25506,1.39594 z m 136.2258,-3.19018 v -5.16352 h 5.16352 5.16352 v 5.16352 5.16352 h -5.16352 -5.16352 z m 21.05907,4.75854 c -0.22274,-0.22274 -0.40498,-2.54632 -0.40498,-5.16352 v -4.75854 h 5.16352 5.16352 v 5.16352 5.16352 h -4.75854 c -2.6172,0 -4.94078,-0.18224 -5.16352,-0.40498 z m 20.85657,-4.75854 v -5.16352 h 4.85978 4.85978 v 5.16352 5.16352 h -4.85978 -4.85978 z m 20.65408,0.0245 v -5.18808 h 5.18808 5.18809 l -0.17644,5.01165 -0.17643,5.01165 -5.01165,0.17644 -5.01165,0.17643 z m 20.65407,-0.0245 v -5.16352 h 5.16352 5.16352 v 5.16352 5.16352 h -5.16352 -5.16352 z m -82.81881,-15.89554 c -0.22274,-0.22274 -0.40498,-2.54632 -0.40498,-5.16352 v -4.75854 h 5.16352 5.16352 v 5.16352 5.16352 h -4.75854 c -2.6172,0 -4.94078,-0.18224 -5.16352,-0.40498 z m 20.65409,0 c -0.22274,-0.22274 -0.40498,-2.54632 -0.40498,-5.16352 v -4.75854 h 5.16352 5.16352 v 5.16352 5.16352 h -4.75854 c -2.6172,0 -4.94078,-0.18224 -5.16352,-0.40498 z m 20.85657,-4.75854 v -5.16352 h 4.85978 4.85978 v 5.16352 5.16352 h -4.85978 -4.85978 z m 20.65408,0.0246 v -5.18809 h 5.18808 5.18809 l -0.17644,5.01165 -0.17643,5.01165 -5.01165,0.17644 -5.01165,0.17643 z m 20.65407,0 v -5.18809 h 5.18809 5.18809 l -0.17644,5.01165 -0.17643,5.01165 -5.01165,0.17644 -5.01166,0.17643 z M 152.37034,307.04579 v -7.59341 h -5.16352 -5.16351 v 7.59341 7.59341 h 5.16351 5.16352 z m 197.42871,0 v -7.59341 h -93.55084 -93.55083 v 7.59341 7.59341 h 93.55083 93.55084 z m 20.65407,0 v -7.59341 h -5.16351 -5.16352 v 7.59341 7.59341 h 5.16352 5.16351 z m 29.51506,-19.92861 1.46606,-1.70443 v -32.73578 -32.73579 l -1.46608,-1.70443 -1.46609,-1.70442 H 256.24821 113.99436 l -1.46609,1.70442 -1.46608,1.70443 v 32.6345 c 0,35.34143 -0.0668,34.60397 3.25423,35.94933 0.72598,0.2941 63.86608,0.47633 142.74375,0.41198 l 141.44194,-0.11538 z m -112.33387,-8.72386 c -0.22274,-0.22274 -0.40498,-2.54632 -0.40498,-5.16352 v -4.75854 h 5.16352 5.16352 v 5.16352 5.16352 h -4.75854 c -2.6172,0 -4.94078,-0.18224 -5.16352,-0.40498 z m 20.65409,0 c -0.22274,-0.22274 -0.40498,-2.54632 -0.40498,-5.16352 v -4.75854 h 5.16352 5.16352 v 5.16352 5.16352 h -4.75854 c -2.6172,0 -4.94078,-0.18224 -5.16352,-0.40498 z m 20.85657,-4.75854 v -5.16352 h 4.85978 4.85978 v 5.16352 5.16352 h -4.85978 -4.85978 z m 20.65408,0.0245 v -5.18808 h 5.18808 5.18809 l -0.17644,5.01165 -0.17643,5.01165 -5.01165,0.17644 -5.01165,0.17643 z m 20.65407,0 v -5.18808 h 5.18809 5.18809 l -0.17644,5.01165 -0.17643,5.01165 -5.01165,0.17644 -5.01166,0.17643 z m -226.15228,-5.91497 c -5.73676,-1.19192 -9.79996,-4.91143 -11.69527,-10.70599 -2.38737,-7.29896 1.21631,-15.08147 8.52653,-18.41386 3.00337,-1.3691 9.04389,-1.48159 12.05265,-0.22444 2.9956,1.25164 6.31283,4.28733 7.73835,7.08159 l 1.1915,2.33553 h 53.33938 53.33938 l 1.32084,1.40597 c 1.81001,1.92667 1.76954,5.25038 -0.0851,6.99277 l -1.40597,1.32083 h -53.25099 -53.251 l -0.99616,1.97429 c -3.04645,6.03776 -10.30194,9.58842 -16.82411,8.23331 z m 6.70269,-11.61229 c 0.94203,-0.85255 1.36681,-1.92633 1.36681,-3.45509 0,-5.32227 -7.41226,-7.01504 -9.44234,-2.1564 -1.16874,2.79718 -0.18216,5.64443 2.32042,6.69669 2.17978,0.91653 3.90215,0.59175 5.75511,-1.0852 z m 136.2258,-3.45509 v -4.85975 h 5.16352 5.16352 v 4.85979 4.85978 h -5.16352 -5.16352 z m 20.65409,0 v -4.85975 h 5.16352 5.16352 v 4.85979 4.85978 h -5.16352 -5.16352 z m 21.26155,0 v -4.85975 h 4.85978 4.85978 v 4.85979 4.85978 h -4.85978 -4.85978 z m 20.65408,0 v -4.85975 h 5.16352 5.16352 v 4.85979 4.85978 h -5.16352 -5.16352 z m 20.65407,0 v -4.85975 h 5.16352 5.16352 v 4.85979 4.85978 h -5.16352 -5.16352 z m -83.09649,-20.80595 0.17643,-5.01165 5.01166,-0.17643 5.01165,-0.17644 v 5.18809 5.18808 h -5.18809 -5.18808 z m 20.65409,0 0.17643,-5.01165 5.01165,-0.17643 5.01166,-0.17644 v 5.18809 5.18808 h -5.18809 -5.18809 z m 21.13425,-0.15187 v -5.16352 h 4.85978 4.85978 v 5.16352 5.16352 h -4.85978 -4.85978 z m 20.65408,-0.0245 v -5.18808 l 5.01165,0.17643 5.01165,0.17643 0.17643,5.01166 0.17644,5.01165 h -5.18809 -5.18808 z m 20.65407,0 v -5.18808 l 5.01166,0.17643 5.01165,0.17643 0.17643,5.01166 0.17644,5.01165 h -5.18809 -5.18809 z M 152.37034,198.30814 v -7.59341 h -5.16352 -5.16351 v 7.59341 7.59341 h 5.16351 5.16352 z m 197.42871,0 v -7.59341 h -93.55084 -93.55083 v 7.59341 7.59341 h 93.55083 93.55084 z m 20.65407,0 v -7.59341 h -5.16351 -5.16352 v 7.59341 7.59341 h 5.16352 5.16351 z m 27.6634,-18.80227 c 1.24202,-0.51895 2.35889,-1.53514 2.71411,-2.46944 0.37227,-0.97916 0.60361,-13.92963 0.60361,-33.79086 v -32.20325 l -1.77569,-1.77568 -1.77569,-1.7757 H 256.24821 114.61357 l -1.77569,1.7757 -1.77569,1.77568 v 32.20325 c 0,19.83394 0.23155,32.81228 0.60285,33.78885 1.33464,3.5104 -7.6352,3.30364 144.45081,3.3295 120.93853,0.0205 140.17608,-0.0957 142.00067,-0.85805 z m -110.75989,-15.06434 0.17643,-5.01165 5.01166,-0.17644 5.01165,-0.17643 v 5.18809 5.18808 h -5.18809 -5.18808 z m 20.65409,0 0.17643,-5.01165 5.01165,-0.17644 5.01166,-0.17643 v 5.18809 5.18808 h -5.18809 -5.18809 z m 21.13425,-0.15187 v -5.16352 h 4.85978 4.85978 v 5.16352 5.16352 h -4.85978 -4.85978 z m 20.65408,-0.0245 v -5.18809 l 5.01165,0.17644 5.01165,0.17643 0.17643,5.01165 0.17644,5.01166 h -5.18809 -5.18808 z m 20.65407,0 v -5.18809 l 5.01166,0.17644 5.01165,0.17643 0.17643,5.01165 0.17644,5.01166 h -5.18809 -5.18809 z m -228.87007,-6.01491 c -5.14618,-2.31896 -8.89562,-7.23561 -9.63574,-12.63538 -1.27571,-9.30727 7.94486,-18.64904 16.9809,-17.20412 5.30374,0.8481 10.78385,4.65156 12.08968,8.3908 l 0.5834,1.67055 h 52.39633 c 36.68865,0 52.97368,0.20127 54.32222,0.67137 2.28475,0.79647 3.11519,2.13352 3.11519,5.0156 0,1.56889 -0.4172,2.45018 -1.6006,3.38104 -1.59149,1.25186 -1.90237,1.25903 -54.54941,1.25903 h -52.9488 l -2.09744,3.17813 c -3.06097,4.6381 -6.85366,6.78447 -12.36532,6.99782 -2.8147,0.10896 -4.99848,-0.14268 -6.29041,-0.72484 z m 9.29623,-10.94218 c 2.80223,-2.80224 1.46443,-7.27 -2.53957,-8.48119 -2.96508,-0.89692 -6.84786,2.95198 -5.95415,5.90218 1.22465,4.04262 5.67792,5.3948 8.49372,2.57901 z m 136.35005,-3.67245 v -5.16352 h 5.16352 5.16352 v 5.16352 5.16352 h -5.16352 -5.16352 z m 20.78139,0.15187 0.17643,-5.01165 5.01165,-0.17643 5.01166,-0.17645 v 5.1881 5.18808 h -5.18809 -5.18809 z m 21.13425,-0.15187 v -5.16352 h 4.85978 4.85978 v 5.16352 5.16352 h -4.85978 -4.85978 z m 20.65408,-0.0245 v -5.18808 l 5.01165,0.17643 5.01165,0.17643 0.17643,5.01166 0.17644,5.01165 h -5.18809 -5.18808 z m 20.65407,0.0245 v -5.16352 h 5.16352 5.16352 v 5.16352 5.16352 h -5.16352 -5.16352 z m -83.22379,-20.65408 v -5.16352 h 5.16352 5.16352 v 5.16352 5.16352 h -5.16352 -5.16352 z m 20.65409,0 v -5.16352 h 5.16352 5.16352 v 5.16352 5.16352 h -5.16352 -5.16352 z m 21.26155,0 v -5.16352 h 4.85978 4.85978 v 5.16352 5.16352 h -4.85978 -4.85978 z m 20.65408,0 v -5.16352 h 5.16352 5.16352 v 5.16352 5.16352 h -5.16352 -5.16352 z m 20.65407,0 v -5.16352 h 5.16352 5.16352 v 5.16352 5.16352 h -5.16352 -5.16352 z"
   id="path14610" /></svg>
