<?xml version="1.0" encoding="UTF-8" standalone="no"?>
<!-- Generator: Adobe Illustrator 24.1.2, SVG Export Plug-In . SVG Version: 6.00 Build 0)  -->

<svg
   version="1.1"
   id="Layer_1"
   x="0px"
   y="0px"
   viewBox="0 0 512 512"
   style="enable-background:new 0 0 512 512;"
   xml:space="preserve"
   sodipodi:docname="digital-marketing.svg"
   inkscape:version="1.1 (c68e22c387, 2021-05-23)"
   xmlns:inkscape="http://www.inkscape.org/namespaces/inkscape"
   xmlns:sodipodi="http://sodipodi.sourceforge.net/DTD/sodipodi-0.dtd"
   xmlns="http://www.w3.org/2000/svg"
   xmlns:svg="http://www.w3.org/2000/svg"><defs
   id="defs31"><pattern
     id="EMFhbasepattern"
     patternUnits="userSpaceOnUse"
     width="6"
     height="6"
     x="0"
     y="0" /></defs><sodipodi:namedview
   id="namedview29"
   pagecolor="#ffffff"
   bordercolor="#666666"
   borderopacity="1.0"
   inkscape:pageshadow="2"
   inkscape:pageopacity="0.0"
   inkscape:pagecheckerboard="0"
   showgrid="false"
   inkscape:zoom="0.35907766"
   inkscape:cx="438.62378"
   inkscape:cy="296.59322"
   inkscape:window-width="1366"
   inkscape:window-height="705"
   inkscape:window-x="-8"
   inkscape:window-y="-8"
   inkscape:window-maximized="1"
   inkscape:current-layer="Layer_1"
   showguides="true"
   inkscape:guide-bbox="true"><sodipodi:guide
     position="64.052996,720.86847"
     orientation="1,0"
     id="guide1985" /><sodipodi:guide
     position="456.72571,498.07544"
     orientation="1,0"
     id="guide2067" /><sodipodi:guide
     position="526.34853,83.123417"
     orientation="0,-1"
     id="guide2071" /></sodipodi:namedview>
<style
   type="text/css"
   id="style2">
	.st0{fill:#FF5000;}
</style>

<g
   id="g10"
   transform="matrix(0.78161183,0,0,0.78161183,75.28084,67.072854)"
   style="fill:#00b9f3;fill-opacity:0.843137"><path
     class="st0"
     d="m 116.5,194.5 h 6.7 v 55.4 c 0,16.7 13.6,30.3 30.3,30.3 h 26.8 c 4.1,0 7.5,-3.4 7.5,-7.5 V 217 c 0,-4.1 -3.4,-7.5 -7.5,-7.5 -4.1,0 -7.5,3.4 -7.5,7.5 v 48.2 h -19.3 c -8.4,0 -15.3,-6.9 -15.3,-15.3 v -55.4 h 71.1 l 157.9,45.1 c 0.7,0.2 1.4,0.3 2.1,0.3 1.6,0 3.2,-0.5 4.5,-1.5 1.9,-1.4 3,-3.6 3,-6 V 63.9 c 0,-2.4 -1.1,-4.6 -3,-6 -1.9,-1.4 -4.3,-1.9 -6.6,-1.2 l -157.9,45.1 h -92.9 c -12.9,0 -23.3,10.5 -23.3,23.3 v 46.2 c 0.1,12.7 10.5,23.2 23.4,23.2 z m 245.3,27.9 -144,-41.1 v -66.5 l 144,-41.1 z M 108.2,125 c 0,-4.6 3.7,-8.3 8.3,-8.3 h 86.4 v 62.8 h -86.4 c -4.6,0 -8.3,-3.7 -8.3,-8.3 0,0 0,-46.2 0,-46.2 z"
     id="path4"
     style="fill:#00b9f3;fill-opacity:0.843137" /><path
     class="st0"
     d="M 452.2,16.4 H 17.8 C 8,16.4 0,24.4 0,34.2 v 329.2 c 0,9.8 8,17.8 17.8,17.8 h 163.8 v 57.4 h -70.7 c -4.1,0 -7.5,3.4 -7.5,7.5 0,4.1 3.4,7.5 7.5,7.5 h 248.2 c 4.1,0 7.5,-3.4 7.5,-7.5 0,-4.1 -3.4,-7.5 -7.5,-7.5 h -70.7 v -57.4 h 163.8 c 9.8,0 17.8,-8 17.8,-17.8 V 34.2 c 0,-9.8 -8,-17.8 -17.8,-17.8 z M 273.4,438.6 h -76.7 v -57.4 h 76.7 z M 455,363.4 c 0,1.5 -1.3,2.8 -2.8,2.8 H 17.8 c -1.5,0 -2.8,-1.3 -2.8,-2.8 V 34.2 c 0,-1.5 1.3,-2.8 2.8,-2.8 h 434.3 c 1.5,0 2.8,1.3 2.8,2.8 v 329.2 z"
     id="path6-6"
     style="fill:#00b9f3;fill-opacity:0.843137" /><path
     class="st0"
     d="m 431.5,305.2 h -393 c -4.1,0 -7.5,3.4 -7.5,7.5 0,4.1 3.4,7.5 7.5,7.5 h 393 c 4.1,0 7.5,-3.4 7.5,-7.5 0,-4.1 -3.4,-7.5 -7.5,-7.5 z"
     id="path8-2"
     style="fill:#00b9f3;fill-opacity:0.843137" /></g></svg>
