<?xml version="1.0" encoding="UTF-8" standalone="no"?>
<!-- Generator: Adobe Illustrator 24.1.2, SVG Export Plug-In . SVG Version: 6.00 Build 0)  -->

<svg
   version="1.1"
   id="Layer_1"
   x="0px"
   y="0px"
   viewBox="0 0 512 512"
   style="enable-background:new 0 0 512 512;"
   xml:space="preserve"
   sodipodi:docname="domain-registration.svg"
   inkscape:version="1.1 (c68e22c387, 2021-05-23)"
   xmlns:inkscape="http://www.inkscape.org/namespaces/inkscape"
   xmlns:sodipodi="http://sodipodi.sourceforge.net/DTD/sodipodi-0.dtd"
   xmlns="http://www.w3.org/2000/svg"
   xmlns:svg="http://www.w3.org/2000/svg"><defs
   id="defs31"><pattern
     id="EMFhbasepattern"
     patternUnits="userSpaceOnUse"
     width="6"
     height="6"
     x="0"
     y="0" /></defs><sodipodi:namedview
   id="namedview29"
   pagecolor="#ffffff"
   bordercolor="#666666"
   borderopacity="1.0"
   inkscape:pageshadow="2"
   inkscape:pageopacity="0.0"
   inkscape:pagecheckerboard="0"
   showgrid="false"
   inkscape:zoom="0.35907766"
   inkscape:cx="438.62378"
   inkscape:cy="296.59322"
   inkscape:window-width="1366"
   inkscape:window-height="705"
   inkscape:window-x="-8"
   inkscape:window-y="-8"
   inkscape:window-maximized="1"
   inkscape:current-layer="Layer_1"
   showguides="true"
   inkscape:guide-bbox="true"><sodipodi:guide
     position="64.052996,720.86847"
     orientation="1,0"
     id="guide1985" /><sodipodi:guide
     position="456.72571,498.07544"
     orientation="1,0"
     id="guide2067" /><sodipodi:guide
     position="526.34853,83.123417"
     orientation="0,-1"
     id="guide2071" /><sodipodi:guide
     position="459.51063,406.17331"
     orientation="0,-1"
     id="guide21" /><sodipodi:guide
     position="159.77206,394.4078"
     orientation="1,0"
     id="guide23" /><sodipodi:guide
     position="401.92378,150.06708"
     orientation="1,0"
     id="guide25" /></sodipodi:namedview>
<style
   type="text/css"
   id="style2">
	.st0{fill:#FF5000;}
</style>

<path
   style="fill:#00b9f3;fill-opacity:0.843137;stroke-width:0.577822"
   d="m 146.96707,400.94553 c -5.50724,-1.49274 -10.20632,-6.11242 -11.8824,-11.68153 -1.17439,-3.90216 -1.21233,-153.68752 -0.0392,-155.23145 1.26239,-1.66152 3.37642,-2.16241 5.44884,-1.291 1.01914,0.42852 1.91466,0.85668 1.99005,0.95147 0.0754,0.0949 0.27035,34.67101 0.43338,76.83606 0.29485,76.2985 0.30198,76.67131 1.4876,78.25926 0.65525,0.87754 1.90941,2.13163 2.78709,2.78688 l 1.59564,1.19135 H 282.1803 415.57257 l 1.59568,-1.19135 c 0.87763,-0.65525 2.13178,-1.90936 2.78702,-2.78697 1.19005,-1.59382 1.19153,-1.69776 1.34111,-93.13818 l 0.14987,-91.54258 H 282.18566 142.92514 v 6.00315 c 0,5.0044 -0.17985,6.22525 -1.08118,7.33832 -1.50919,1.86376 -5.00271,1.85518 -6.51789,-0.0145 -1.05673,-1.30496 -1.08881,-2.9743 -0.93677,-48.7971 0.15656,-47.16068 0.16471,-47.46204 1.39928,-50.13228 1.58421,-3.42711 4.99677,-6.83964 8.62566,-8.6257 l 2.84457,-1.40001 H 282.1804 417.10197 l 2.68639,1.24183 c 3.43383,1.58736 7.19651,5.35004 8.78387,8.78388 l 1.24184,2.68639 v 133.76591 133.76593 l -1.24184,2.6864 c -1.58736,3.43386 -5.35004,7.1965 -8.78387,8.78386 l -2.68639,1.24184 -133.76593,0.10851 c -103.79278,0.0841 -134.34914,-0.0495 -136.36875,-0.59691 z M 421.4354,180.99459 V 166.54903 H 282.46908 143.50273 v 14.44556 14.44558 H 282.46908 421.4354 Z m -0.12047,-40.69522 c -0.16005,-16.71644 -0.22699,-17.66087 -1.35979,-19.1769 -0.65525,-0.87703 -1.90939,-2.13068 -2.78703,-2.78592 l -1.59568,-1.19134 H 282.18017 148.7879 l -1.5957,1.19134 c -0.87762,0.65524 -2.13179,1.90889 -2.78703,2.78592 -1.13265,1.51603 -1.19961,2.46046 -1.3598,19.1769 l -0.16849,17.58233 h 139.30324 139.30319 z m -253.4056,9.2993 c -9.34364,-3.38864 -11.52851,-15.8979 -3.87816,-22.20397 1.13943,-0.93919 3.0623,-2.00441 4.27303,-2.36719 2.99025,-0.89588 116.04294,-0.93382 119.26171,-0.0402 2.8205,0.78321 6.62816,4.20892 7.98181,7.18111 1.34578,2.95498 1.34578,7.44585 0,10.40083 -1.35365,2.97219 -5.16131,6.39787 -7.98181,7.18108 -3.28952,0.91347 -117.11753,0.76903 -119.65658,-0.15191 z m 118.63075,-9.3143 c 0.78007,-0.78006 1.41831,-2.09197 1.41831,-2.91539 0,-0.82339 -0.63824,-2.1353 -1.41831,-2.91536 l -1.41827,-1.41831 h -56.89454 c -31.292,0 -57.31545,0.16151 -57.82991,0.35893 -1.41065,0.54134 -2.70577,3.45604 -2.2834,5.13888 0.83623,3.33177 -2.23014,3.16953 59.90571,3.16953 h 57.10214 z m 33.95528,8.67797 c -5.54438,-2.58142 -8.43947,-8.74344 -6.89867,-14.68339 1.03374,-3.98519 3.22615,-6.64108 7.0104,-8.49256 2.59957,-1.27184 3.76047,-1.51307 6.27736,-1.30435 3.94692,0.32731 7.97275,2.64833 10.05734,5.79837 1.39589,2.10935 1.57606,2.92572 1.57606,7.14107 0,4.34959 -0.14958,4.97521 -1.73702,7.26499 -2.20978,3.18738 -6.89418,5.68591 -10.64531,5.67788 -1.56971,-0.003 -3.85763,-0.57207 -5.64016,-1.40201 z m 8.1216,-8.45726 c 2.10551,-1.65622 2.10551,-4.61598 0,-6.27216 -0.83736,-0.65869 -1.97239,-1.19761 -2.52229,-1.19761 -1.93802,0 -4.04476,2.25721 -4.04476,4.33367 0,2.07646 2.10674,4.33367 4.04476,4.33367 0.5499,0 1.68493,-0.53889 2.52229,-1.19757 z m 26.87806,8.25084 c -1.92873,-1.00756 -3.74474,-2.54609 -4.83301,-4.0945 -1.60109,-2.27811 -1.74334,-2.87309 -1.74334,-7.29244 0,-4.41935 0.14231,-5.01428 1.74334,-7.29239 2.25793,-3.21268 6.90171,-5.71076 10.60135,-5.70295 1.60959,0.003 3.87568,0.56293 5.67785,1.40201 9.73413,4.53214 9.70832,18.66613 -0.0426,23.20634 -4.0506,1.88605 -7.49124,1.81786 -11.40375,-0.22612 z m 8.62699,-8.2314 c 1.83342,-1.70811 1.70897,-4.74449 -0.25783,-6.2916 -0.83737,-0.65869 -1.97237,-1.19761 -2.52228,-1.19761 -0.54989,0 -1.6849,0.53892 -2.52225,1.19761 -2.10554,1.65618 -2.10554,4.61594 0,6.27216 1.92679,1.51562 3.68951,1.52208 5.30242,0.0204 z m 26.61924,8.23091 c -2.23142,-1.16571 -3.56566,-2.38293 -4.79938,-4.3784 -6.71513,-10.8615 4.36582,-24.0102 15.84756,-18.80486 5.20354,2.35906 7.74839,6.23358 7.74839,11.79681 0,9.90427 -10.01759,15.97263 -18.79657,11.38645 z m 8.1178,-7.60853 c 1.68153,-0.89992 2.59106,-3.69597 1.72874,-5.31449 -1.58256,-2.97043 -4.01857,-3.56794 -6.52104,-1.59949 -3.92189,3.08496 0.37188,9.27974 4.7923,6.91398 z M 170.09396,362.84436 c -2.84658,-1.44031 -2.91653,-2.06378 -2.75869,-24.58912 l 0.14697,-20.99763 1.36411,-1.10409 c 1.28826,-1.04268 2.55998,-1.10408 22.86771,-1.10408 h 21.50362 l 1.25637,1.33735 c 1.24288,1.323 1.25636,1.56508 1.25636,22.57307 0,12.74686 -0.22612,21.6582 -0.56561,22.29259 -1.11904,2.09094 -3.62399,2.33434 -23.93361,2.32558 -14.64393,-0.005 -20.07224,-0.19469 -21.13738,-0.73367 z M 207.06324,339.318 v -15.60121 h -15.60121 -15.60122 v 15.21597 c 0,8.36881 0.17344,15.38936 0.3852,15.60121 0.21188,0.21185 7.23242,0.38522 15.60122,0.38522 h 15.21601 z m 34.29782,20.22863 c -1.84317,-0.74379 -3.09542,-2.88084 -3.09542,-5.28246 0,-1.67064 0.38431,-2.45472 1.77782,-3.62729 2.12317,-1.78652 3.65579,-1.87787 6.13588,-0.36566 3.5608,2.17115 2.91695,7.82556 -1.04848,9.2079 -2.10792,0.73484 -2.11587,0.73498 -3.7698,0.0675 z m 66.20248,-0.21709 c -5.73479,-1.54626 -10.15061,-5.28968 -11.84686,-10.04291 -1.1206,-3.14008 -1.05999,-13.69394 0.0981,-17.09285 3.43055,-10.06808 17.99401,-13.94981 26.88744,-7.16657 4.3621,3.32709 6.6735,9.89045 5.13006,14.56714 -1.08557,3.28925 -2.85626,3.76843 -13.92556,3.76843 h -9.33595 l 0.36781,1.87791 c 1.19691,6.111 8.30288,8.59226 15.29077,5.33924 3.8372,-1.78633 4.41289,-1.78825 6.18049,-0.0205 2.03828,2.03828 1.82788,3.93816 -0.66365,5.99189 -3.86814,3.18845 -12.03402,4.43619 -18.18268,2.77832 z m 10.10544,-22.09571 c 1.45696,-0.5591 1.14819,-3.90487 -0.54618,-5.9185 -3.60571,-4.28514 -11.05748,-2.36212 -12.08571,3.11887 -0.20779,1.10789 -0.22,2.26994 -0.0262,2.58236 0.37827,0.61202 11.14832,0.79687 12.65876,0.21738 z M 257.3501,358.9255 c -0.78554,-0.3283 -1.62662,-0.90898 -1.86909,-1.29041 -0.24241,-0.3814 -0.44481,-8.15432 -0.44967,-17.27311 -0.009,-16.48267 -8.3e-4,-16.5849 1.27536,-17.47915 2.97662,-2.08491 7.96097,-0.51291 7.96097,2.51074 v 1.61125 l 2.20645,-2.09896 c 5.19863,-4.94535 11.9351,-4.61825 17.25753,0.83794 4.31274,4.42118 4.80455,6.49744 4.80455,20.28277 0,12.36689 -0.0591,12.57093 -3.83868,13.28 -1.38983,0.26076 -2.69269,0.0902 -3.97247,-0.52018 l -1.90439,-0.90813 -0.19817,-11.18477 c -0.16822,-9.49186 -0.35246,-11.42007 -1.2174,-12.73903 -3.21846,-4.90778 -9.9657,-4.4533 -11.80473,0.79511 -0.42787,1.22117 -0.70204,5.82717 -0.72227,12.13505 -0.0293,9.18462 -0.13735,10.26154 -1.11658,11.14778 -1.36227,1.2328 -4.5395,1.67539 -6.41141,0.8931 z m 85.8871,-0.21216 c -5.00344,-1.34479 -7.55186,-4.03139 -8.46969,-8.92887 -0.32083,-1.71185 -0.5833,-11.79943 -0.5833,-22.41687 v -19.30447 l 1.41828,-1.41827 c 2.0922,-2.09225 6.98766,-1.77921 8.54029,0.5461 0.23338,0.34968 0.4285,3.82103 0.43338,7.71411 l 0.009,7.07833 h 5.12965 c 5.81865,0 6.65793,0.48879 6.65793,3.87754 0,2.97484 -1.26749,3.63416 -6.98653,3.63416 h -4.80105 v 9.53406 c 0,11.51835 0.15948,11.84536 5.77824,11.84536 2.6965,0 3.72373,0.25695 4.62256,1.15563 1.15578,1.1558 1.5579,4.28258 0.71345,5.54729 -1.35852,2.03453 -7.15342,2.56274 -12.46204,1.1359 z m -174.33431,-84.62437 -1.70944,-1.70943 v -20.58582 c 0,-21.59966 0.1819,-23.27637 2.6261,-24.21429 0.51446,-0.19731 10.36978,-0.35894 21.90072,-0.35894 20.33511,0 21.0111,0.036 22.48782,1.19758 l 1.52247,1.19761 v 21.56237 c 0,20.3657 -0.0614,21.63809 -1.10407,22.92653 l -1.10411,1.36409 -21.45503,0.165 -21.45504,0.16501 z m 38.16035,-22.59992 v -15.60121 h -15.60121 -15.60122 v 15.21597 c 0,8.36882 0.17344,15.38936 0.3852,15.60122 0.21188,0.21185 7.23242,0.38522 15.60122,0.38522 h 15.21601 z m 34.1858,18.73679 c -2.0979,-0.88212 -2.9834,-2.38647 -2.9834,-5.06862 0,-2.86564 2.84757,-5.25258 5.71174,-4.78777 2.56632,0.41647 4.05953,1.90969 4.47599,4.476 0.26308,1.621 0.0326,2.37077 -1.1678,3.7972 -1.76414,2.09659 -3.64336,2.58946 -6.03653,1.58319 z m 23.48274,0.13794 c -3.94633,-1.11662 -7.10804,-3.44082 -8.95508,-6.58299 -1.52365,-2.59205 -1.63277,-3.22767 -1.81824,-10.58911 -0.11349,-4.50591 0.0699,-8.82342 0.43166,-10.16731 1.01185,-3.7577 3.61575,-6.81415 7.37973,-8.6624 2.98474,-1.46556 3.98423,-1.65204 8.85386,-1.6519 4.69962,1.5e-4 5.90468,0.20807 8.3766,1.44456 1.58799,0.7944 3.26964,2.14191 3.73697,2.99443 0.75698,1.38094 0.74502,1.76961 -0.10973,3.56203 -1.27927,2.68257 -2.55151,2.96527 -6.84159,1.52003 -4.41676,-1.48791 -7.39356,-1.13599 -9.98817,1.18074 -1.79214,1.60019 -1.82148,1.71258 -1.98188,7.59539 -0.17722,6.50283 0.24183,7.94962 2.86691,9.89832 1.97851,1.46867 6.94068,1.5544 9.62495,0.16618 3.01603,-1.55966 5.36666,-1.03141 6.72856,1.51207 1.14421,2.13693 1.14418,2.13985 -0.0301,3.75584 -2.79447,3.84588 -11.85381,5.84071 -18.27455,4.02397 z m 34.32365,-0.28781 c -5.39827,-1.92708 -9.78821,-6.48254 -11.0585,-11.47548 -0.88777,-3.48944 -0.75806,-11.047 0.24764,-14.43379 1.09581,-3.69 4.71456,-7.84964 8.59873,-9.88397 2.49202,-1.30519 3.69173,-1.55089 7.58297,-1.55302 7.28687,-0.003 12.5744,3.07959 15.56234,9.07564 1.33849,2.68595 1.48219,3.62906 1.47076,9.65277 -0.0116,5.45518 -0.22759,7.15146 -1.18728,9.27617 -3.61368,7.99974 -13.17857,12.21116 -21.21671,9.34168 z m 9.00988,-9.14433 c 2.85323,-1.8008 3.65283,-4.07684 3.46656,-9.86718 -0.16995,-5.28042 -0.19381,-5.35815 -2.28247,-7.44602 -1.70868,-1.70796 -2.54098,-2.10989 -4.36887,-2.10989 -5.17335,0 -7.09392,2.79508 -7.097,10.32849 -0.002,4.52185 0.18305,5.53475 1.31794,7.2228 2.13795,3.17971 5.70976,3.92558 8.96384,1.8718 z m 23.22978,9.24221 c -2.92037,-1.16308 -2.88911,-0.96047 -2.88911,-18.74151 0,-16.53465 0.009,-16.63992 1.28421,-17.53404 2.97659,-2.0849 7.96094,-0.5129 7.96094,2.51073 v 1.61123 l 2.30535,-2.19301 c 5.58584,-5.31365 13.64248,-4.13716 17.10883,2.49844 l 0.82068,1.57101 3.02805,-3.1044 c 5.3447,-5.47948 12.13528,-5.87595 17.78681,-1.03843 4.55486,3.8988 4.86281,5.08392 5.07014,19.51115 0.17896,12.4488 0.1551,12.75743 -1.07187,13.86775 -1.6821,1.52228 -5.76408,1.54143 -7.42886,0.035 -1.14964,-1.04039 -1.21631,-1.66375 -1.21631,-11.37437 0,-5.8749 -0.26394,-10.97008 -0.61631,-11.90028 -1.50132,-3.96238 -5.22747,-5.69683 -8.54886,-3.97926 -3.20898,1.65943 -3.54693,3.11104 -3.54693,15.2354 0,10.36547 -0.0614,10.97346 -1.21631,12.01851 -0.83975,0.75999 -2.0732,1.10076 -3.98407,1.10076 -1.91092,0 -3.14437,-0.34077 -3.98412,-1.10076 -1.15497,-1.04524 -1.21629,-1.6526 -1.21629,-12.04509 0,-11.84806 -0.33359,-13.35624 -3.30581,-14.94694 -1.93689,-1.03658 -5.21693,-0.81626 -6.63384,0.4456 -2.38817,2.12684 -2.77245,4.22213 -2.77245,15.11588 0,9.36836 -0.10103,10.4211 -1.08399,11.3108 -1.16786,1.0569 -4.44129,1.68698 -5.84988,1.12598 z"
   id="path1881" /></svg>
