<?xml version="1.0" encoding="UTF-8" standalone="no"?>
<!-- Generator: Adobe Illustrator 24.1.2, SVG Export Plug-In . SVG Version: 6.00 Build 0)  -->

<svg
   version="1.1"
   id="Layer_1"
   x="0px"
   y="0px"
   viewBox="0 0 512 512"
   style="enable-background:new 0 0 512 512;"
   xml:space="preserve"
   sodipodi:docname="ecommerce.svg"
   inkscape:version="1.1 (c68e22c387, 2021-05-23)"
   xmlns:inkscape="http://www.inkscape.org/namespaces/inkscape"
   xmlns:sodipodi="http://sodipodi.sourceforge.net/DTD/sodipodi-0.dtd"
   xmlns="http://www.w3.org/2000/svg"
   xmlns:svg="http://www.w3.org/2000/svg"><defs
   id="defs31"><pattern
     id="EMFhbasepattern"
     patternUnits="userSpaceOnUse"
     width="6"
     height="6"
     x="0"
     y="0" /></defs><sodipodi:namedview
   id="namedview29"
   pagecolor="#ffffff"
   bordercolor="#666666"
   borderopacity="1.0"
   inkscape:pageshadow="2"
   inkscape:pageopacity="0.0"
   inkscape:pagecheckerboard="0"
   showgrid="false"
   inkscape:zoom="0.35907766"
   inkscape:cx="438.62378"
   inkscape:cy="296.59322"
   inkscape:window-width="1366"
   inkscape:window-height="705"
   inkscape:window-x="-8"
   inkscape:window-y="-8"
   inkscape:window-maximized="1"
   inkscape:current-layer="Layer_1"
   showguides="true"
   inkscape:guide-bbox="true"><sodipodi:guide
     position="64.052996,720.86847"
     orientation="1,0"
     id="guide1985" /><sodipodi:guide
     position="456.72571,498.07544"
     orientation="1,0"
     id="guide2067" /><sodipodi:guide
     position="526.34853,83.123417"
     orientation="0,-1"
     id="guide2071" /></sodipodi:namedview>
<style
   type="text/css"
   id="style2">
	.st0{fill:#FF5000;}
</style>

<g
   id="g12"
   transform="matrix(0.61366255,0,0,0.61366255,114.55295,110.49975)"
   style="fill:#00b9f3;fill-opacity:0.84313726"><g
     id="g10"
     style="fill:#00b9f3;fill-opacity:0.84313726"><path
       class="st0"
       d="m 170.1,305.3 h 171.7 c 4.5,0 8.2,-3.7 8.2,-8.2 V 119.3 c 0,-4.5 -3.7,-8.2 -8.2,-8.2 h -39.6 v -3.5 c 0,-25.5 -20.8,-46.3 -46.3,-46.3 -25.5,0 -46.3,20.8 -46.3,46.3 v 3.5 H 170 c -4.5,0 -8.2,3.7 -8.2,8.2 v 177.8 c 0.2,4.5 3.8,8.2 8.3,8.2 z M 226,107.7 c 0,-16.5 13.4,-30 30,-30 16.5,0 30,13.4 30,30 v 3.5 h -60 z m -47.7,19.8 h 31.4 v 13.6 c 0,4.5 3.7,8.2 8.2,8.2 4.5,0 8.2,-3.7 8.2,-8.2 V 127.5 H 286 v 13.6 c 0,4.5 3.7,8.2 8.2,8.2 4.5,0 8.2,-3.7 8.2,-8.2 v -13.6 h 31.4 V 288.9 H 178.3 Z"
       id="path4"
       style="fill:#00b9f3;fill-opacity:0.84313726" /><path
       class="st0"
       d="M 492.6,17.8 H 19.4 C 8.7,17.8 0,26.5 0,37.3 v 358.6 c 0,10.7 8.7,19.4 19.4,19.4 h 178.4 v 62.5 h -77.1 c -4.5,0 -8.2,3.7 -8.2,8.2 0,4.5 3.7,8.2 8.2,8.2 h 270.4 c 4.5,0 8.2,-3.7 8.2,-8.2 0,-4.5 -3.7,-8.2 -8.2,-8.2 H 314 v -62.5 h 178.4 c 10.7,0 19.4,-8.7 19.4,-19.4 V 37.3 C 512,26.5 503.3,17.8 492.6,17.8 Z m -194.8,460 h -83.6 v -62.5 h 83.6 z m 197.9,-81.9 c 0,1.7 -1.4,3.1 -3.1,3.1 H 19.4 c -1.7,0 -3.1,-1.4 -3.1,-3.1 V 37.3 c 0,-1.7 1.4,-3.1 3.1,-3.1 h 473.1 c 1.7,0 3.1,1.4 3.1,3.1 v 358.6 z"
       id="path6"
       style="fill:#00b9f3;fill-opacity:0.84313726" /><path
       class="st0"
       d="M 470,332.5 H 42 c -4.5,0 -8.2,3.7 -8.2,8.2 0,4.5 3.7,8.2 8.2,8.2 h 428 c 4.5,0 8.2,-3.7 8.2,-8.2 0,-4.5 -3.7,-8.2 -8.2,-8.2 z"
       id="path8"
       style="fill:#00b9f3;fill-opacity:0.84313726" /></g></g></svg>
