<?xml version="1.0" encoding="UTF-8" standalone="no"?>
<!-- Generator: Adobe Illustrator 24.1.2, SVG Export Plug-In . SVG Version: 6.00 Build 0)  -->

<svg
   version="1.1"
   id="Layer_1"
   x="0px"
   y="0px"
   viewBox="0 0 512 512"
   style="enable-background:new 0 0 512 512;"
   xml:space="preserve"
   sodipodi:docname="email-hosting.svg"
   inkscape:version="1.1 (c68e22c387, 2021-05-23)"
   xmlns:inkscape="http://www.inkscape.org/namespaces/inkscape"
   xmlns:sodipodi="http://sodipodi.sourceforge.net/DTD/sodipodi-0.dtd"
   xmlns="http://www.w3.org/2000/svg"
   xmlns:svg="http://www.w3.org/2000/svg"><defs
   id="defs31"><pattern
     id="EMFhbasepattern"
     patternUnits="userSpaceOnUse"
     width="6"
     height="6"
     x="0"
     y="0" /></defs><sodipodi:namedview
   id="namedview29"
   pagecolor="#ffffff"
   bordercolor="#666666"
   borderopacity="1.0"
   inkscape:pageshadow="2"
   inkscape:pageopacity="0.0"
   inkscape:pagecheckerboard="0"
   showgrid="false"
   inkscape:zoom="0.48840154"
   inkscape:cx="435.09281"
   inkscape:cy="134.11096"
   inkscape:window-width="1366"
   inkscape:window-height="705"
   inkscape:window-x="-8"
   inkscape:window-y="-8"
   inkscape:window-maximized="1"
   inkscape:current-layer="Layer_1"
   showguides="true"
   inkscape:guide-bbox="true"><sodipodi:guide
     position="64.052996,720.86847"
     orientation="1,0"
     id="guide1985" /><sodipodi:guide
     position="456.72571,498.07544"
     orientation="1,0"
     id="guide2067" /><sodipodi:guide
     position="526.34853,83.123417"
     orientation="0,-1"
     id="guide2071" /><sodipodi:guide
     position="-780,286"
     orientation="0,-1"
     id="guide21" /><sodipodi:guide
     position="159.77206,394.4078"
     orientation="1,0"
     id="guide23" /><sodipodi:guide
     position="401.92378,150.06708"
     orientation="1,0"
     id="guide25" /></sodipodi:namedview>
<style
   type="text/css"
   id="style2">
	.st0{fill:#FF5000;}
</style>

<path
   style="fill:#00b9f3;fill-opacity:0.843137;stroke-width:0.751576"
   d="m 72.850886,428.92891 c -7.2615,-1.34123 -12.76391,-5.44425 -15.91981,-11.871 l -2.11801,-4.31318 v -62.05815 -62.05815 l 2.26808,-4.43487 c 2.63422,-5.1508 7.72975,-9.43636 13.06497,-10.98819 2.80403,-0.81559 21.18702,-1.00533 97.403344,-1.00533 104.94101,0 96.8435,-0.41189 103.78888,5.27933 4.87188,3.99213 7.29601,9.59966 7.68722,17.78215 l 0.31786,6.64833 70.50077,-0.19917 c 69.87727,-0.19742 70.51911,-0.21288 72.5761,-1.74877 1.14134,-0.85227 2.77256,-2.48357 3.62485,-3.6251 1.50593,-2.017 1.5496,-2.94094 1.5496,-32.77989 0,-29.83895 -0.0436,-30.76289 -1.5496,-32.77989 -0.85229,-1.14153 -2.48358,-2.77283 -3.62508,-3.6251 l -2.0754,-1.54959 -153.28585,-0.19328 c -151.38021,-0.19088 -153.322,-0.17481 -156.19699,1.29189 -5.05397,2.57835 -6.06895,5.1874 -6.06895,15.60051 0,4.95327 -0.37378,10.07817 -0.83063,11.38869 -1.43128,4.10575 -5.924904,5.1845 -8.808854,2.11468 -1.52815,-1.62665 -1.63416,-2.47209 -1.63416,-13.03254 0,-11.08266 0.0427,-11.37841 2.28993,-15.87559 4.02248,-8.0497 10.485934,-12.16837 20.069454,-12.78874 l 5.44893,-0.35272 v -8.44772 -8.44772 l -5.82471,-0.34785 c -9.45185,-0.56444 -16.360524,-5.16538 -20.028234,-13.33814 l -2.01574,-4.49168 0.21807,-32.5323 c 0.20253,-30.21189 0.31924,-32.71993 1.63633,-35.16282 2.86767,-5.31891 5.795464,-8.20944 10.821444,-10.68372 l 5.01495,-2.468852 h 154.84044 c 150.81751,0 154.93757,0.03743 158.57715,1.441086 4.90922,1.893266 10.32237,7.046076 12.52922,11.926616 l 1.77192,3.91854 v 32.31776 32.31777 l -1.84332,3.74599 c -3.84476,7.81343 -12.11916,13.16446 -20.35636,13.16446 h -3.72969 v 8.64313 8.64312 h 3.29573 c 8.11221,0 16.52829,5.33826 20.60837,13.07171 l 2.02527,3.83875 v 32.69355 32.69355 l -2.0019,3.75788 c -4.0077,7.52312 -10.8363,12.14746 -19.07342,12.91666 l -4.85405,0.45328 v 8.53444 8.53444 h 3.72969 c 8.2372,0 16.5116,5.35104 20.35636,13.16447 l 1.84332,3.74599 v 32.31776 32.31777 l -1.77192,3.91853 c -2.20685,4.88055 -7.62,10.03335 -12.52922,11.92662 -3.58058,1.38088 -6.47926,1.44109 -69.37805,1.44109 h -65.64135 l -1.4368,-1.7743 c -1.85873,-2.29535 -1.8216,-4.67378 0.11134,-7.1311 l 1.54814,-1.96813 65.28725,-0.20006 c 64.61062,-0.19797 65.30876,-0.21611 67.36252,-1.74964 1.14142,-0.85227 2.77256,-2.48313 3.62485,-3.62413 1.49571,-2.00238 1.55696,-3.1198 1.76229,-32.12483 0.20774,-29.34909 0.17587,-30.11509 -1.36613,-32.8273 -0.86838,-1.52735 -2.48599,-3.45343 -3.59479,-4.28016 -1.978,-1.47485 -3.34948,-1.5069 -72.82409,-1.7023 l -70.80812,-0.19915 -0.2158,35.52322 -0.21581,35.52321 -2.11801,4.31318 c -2.37451,4.83552 -6.74948,8.85791 -11.85146,10.89632 -3.10053,1.23878 -9.3683,1.33185 -96.1364,1.42757 -51.05079,0.0563 -94.172464,-0.14748 -95.825934,-0.45289 z M 259.42961,417.90784 c 0.93008,-0.24924 1.69105,-0.71173 1.69105,-1.02774 0,-0.31602 -11.24546,-9.65039 -24.9899,-20.74304 -13.74445,-11.09266 -30.10404,-24.30939 -36.35465,-29.3705 l -11.36473,-9.20203 -5.99459,4.47198 c -12.05396,8.99227 -19.17594,9.06222 -30.81411,0.30262 -3.03147,-2.28166 -5.84552,-3.94222 -6.25344,-3.6901 -1.8153,1.12191 -69.518754,58.45088 -69.742574,59.05562 -0.27737,0.74944 181.036754,0.94987 183.822944,0.20319 z M 101.81013,380.50319 c 33.17195,-27.98039 34.60079,-29.29086 33.28902,-30.53121 -1.44943,-1.37051 -66.841764,-51.16647 -68.448764,-52.12342 -0.7482,-0.44554 -0.93947,10.93828 -0.93947,55.91574 0,35.66096 0.26529,56.38284 0.71979,56.22465 0.39589,-0.13778 16.31663,-13.40638 35.379424,-29.48576 z m 165.89607,-55.74506 -0.19715,-27.48474 -34.57249,26.3276 c -19.01487,14.48019 -34.57249,26.63134 -34.57249,27.00258 0,0.37124 15.55762,13.21101 34.57249,28.53281 l 34.57249,27.85781 0.19715,-27.37565 c 0.10844,-15.05662 0.10844,-39.7438 0,-54.86041 z m -95.41148,30.67894 c 7.29524,-4.75896 91.00878,-69.02047 90.80955,-69.70866 -0.70514,-2.43579 -4.86264,-2.54568 -96.30639,-2.54568 -91.440834,0 -95.641594,0.11106 -96.288534,2.54568 -0.10984,0.41336 2.06312,2.46211 4.82879,4.55275 2.76568,2.09065 22.62192,17.18276 44.124984,33.53802 21.50305,16.35526 40.40541,30.6251 42.00523,31.71078 3.73194,2.53256 6.8426,2.50587 10.82637,-0.0929 z m 229.37065,-33.63302 v -8.64312 h -61.25346 -61.25343 v 8.64312 8.64312 h 61.25343 61.25346 z m 0,-116.49426 v -8.64312 H 267.13326 132.60118 v 8.64312 8.64312 h 134.53208 134.53211 z m 21.18114,-21.7957 c 1.1088,-0.82674 2.72641,-2.75281 3.59479,-4.28016 1.542,-2.71221 1.57387,-3.47821 1.36613,-32.8273 -0.20533,-29.00503 -0.26658,-30.12245 -1.76229,-32.12484 -0.85229,-1.14099 -2.48358,-2.77185 -3.62508,-3.62413 l -2.0754,-1.54959 -153.01799,-0.1933 c -151.49565,-0.19138 -153.04848,-0.1784 -156.08484,1.30411 -1.68678,0.82357 -3.82784,2.62253 -4.75791,3.99768 -1.68471,2.49091 -1.69104,2.61428 -1.68824,32.8926 0.003,29.00114 0.0712,30.50444 1.49628,32.84181 0.82141,1.34722 2.59574,3.12294 3.94297,3.94605 2.42756,1.48315 3.82879,1.49486 156.52254,1.30838 152.75099,-0.18654 154.09037,-0.20106 156.08904,-1.69131 z m -44.92318,-11.70443 c -4.74798,-1.13903 -10.86889,-5.20364 -13.91248,-9.23862 -9.871,-13.08626 -5.04591,-31.68778 9.96721,-38.42527 4.13756,-1.85683 5.22596,-2.02696 11.06498,-1.72962 7.82911,0.39868 12.42282,2.45183 17.28312,7.72465 5.03736,5.46488 6.47084,9.2942 6.47535,17.29764 0,6.2841 -0.1794,7.10205 -2.57708,11.52454 -4.29616,7.92404 -11.64387,12.67768 -20.51033,13.26931 -2.5944,0.17311 -6.10024,-0.0171 -7.79077,-0.42263 z m 12.28068,-12.06127 c 7.88378,-3.81647 10.24133,-14.89959 4.54852,-21.38332 -3.163,-3.60246 -6.23737,-5.04552 -10.74922,-5.04552 -15.57912,0 -19.33225,21.38882 -4.77614,27.2189 3.00527,1.20369 7.53124,0.87793 10.97684,-0.79006 z m -266.66374,5.46921 c -2.48232,-2.01006 -2.31926,-5.84501 0.346,-8.13757 l 2.05769,-1.76995 80.80743,0.19785 80.80744,0.19785 1.43664,1.7743 c 1.8612,2.29865 1.82093,4.67441 -0.12106,7.14325 l -1.5577,1.9803 h -81.03238 c -77.63015,0 -81.10425,-0.0582 -82.74406,-1.38603 z m 0,-27.80831 c -2.48232,-2.01006 -2.31926,-5.84501 0.346,-8.13757 l 2.05769,-1.76995 80.80743,0.19785 80.80744,0.19785 1.43664,1.77431 c 1.8612,2.29864 1.82093,4.6744 -0.12106,7.14324 l -1.5577,1.9803 h -81.03238 c -77.63015,0 -81.10425,-0.0582 -82.74406,-1.38603 z m 253.32307,266.78386 c -7.37825,-2.4205 -13.84894,-8.51417 -16.49814,-15.53686 -1.36838,-3.62742 -1.62381,-5.53544 -1.35321,-10.10826 0.57895,-9.78353 5.28358,-16.9481 13.92133,-21.20045 4.44648,-2.189 5.72065,-2.47054 11.05419,-2.44249 9.96797,0.0524 17.52416,4.55339 22.23692,13.24577 2.39768,4.42249 2.58061,5.24044 2.57708,11.52453 -0.008,8.00345 -1.43799,11.83276 -6.47535,17.29765 -4.9147,5.33184 -9.46833,7.34859 -17.19548,7.61569 -3.51362,0.12145 -7.23392,-0.0565 -8.26734,-0.39558 z m 13.82448,-12.01362 c 9.04877,-5.11919 9.58909,-18.32 0.98298,-24.01526 -4.38014,-2.89864 -10.9875,-2.87702 -15.41117,0.0504 -5.46753,3.61823 -7.71257,11.17636 -5.14506,17.32129 1.25353,3.00012 5.82655,7.11571 8.58097,7.72265 1.12917,0.24882 2.39126,0.56445 2.80462,0.7014 1.3914,0.461 5.99517,-0.54015 8.18766,-1.78051 z m -13.0729,-104.26671 c -4.62751,-1.23002 -10.92438,-5.21147 -13.2789,-8.39611 -4.24238,-5.73814 -5.13062,-8.50205 -5.12902,-15.95979 0.001,-6.35201 0.23206,-7.57825 2.09043,-11.11141 3.98048,-7.5678 10.07709,-12.03799 18.80965,-13.79174 3.56095,-0.71514 5.15244,-0.65069 9.35463,0.37882 12.32068,3.01849 20.29332,13.50157 19.54002,25.6928 -0.71445,11.56314 -7.89365,20.35909 -18.95582,23.22471 -5.39204,1.3968 -7.05455,1.39181 -12.43099,-0.0373 z m 9.97892,-10.87273 c 1.56143,-0.4336 4.06382,-1.86382 5.56088,-3.17826 6.44577,-5.65946 6.44213,-14.95356 -0.008,-20.61692 -7.20562,-6.32661 -17.5325,-4.36372 -21.63574,4.11243 -3.39495,7.01303 -0.60506,15.07724 6.43948,18.61341 4.12537,2.07082 5.49161,2.22232 9.64346,1.06934 z M 123.1977,253.77673 c -0.75301,-0.83206 -1.36911,-2.51875 -1.36911,-3.74818 0,-1.22942 0.6161,-2.91611 1.36911,-3.74817 1.35599,-1.49835 2.14965,-1.51286 82.76933,-1.51286 h 81.40023 l 1.53242,1.64487 c 1.95772,2.10136 1.95772,5.13097 0,7.23233 l -1.53242,1.64487 h -81.40023 c -80.61968,0 -81.41334,-0.0145 -82.76933,-1.51286 z"
   id="path11858" /></svg>
