<?xml version="1.0" encoding="UTF-8" standalone="no"?>
<!-- Generator: Adobe Illustrator 24.1.2, SVG Export Plug-In . SVG Version: 6.00 Build 0)  -->

<svg
   version="1.1"
   id="Layer_1"
   x="0px"
   y="0px"
   viewBox="0 0 512 512"
   style="enable-background:new 0 0 512 512;"
   xml:space="preserve"
   sodipodi:docname="instagram-marketing.svg"
   inkscape:version="1.1 (c68e22c387, 2021-05-23)"
   xmlns:inkscape="http://www.inkscape.org/namespaces/inkscape"
   xmlns:sodipodi="http://sodipodi.sourceforge.net/DTD/sodipodi-0.dtd"
   xmlns="http://www.w3.org/2000/svg"
   xmlns:svg="http://www.w3.org/2000/svg"><defs
   id="defs31"><pattern
     id="EMFhbasepattern"
     patternUnits="userSpaceOnUse"
     width="6"
     height="6"
     x="0"
     y="0" /></defs><sodipodi:namedview
   id="namedview29"
   pagecolor="#ffffff"
   bordercolor="#666666"
   borderopacity="1.0"
   inkscape:pageshadow="2"
   inkscape:pageopacity="0.0"
   inkscape:pagecheckerboard="0"
   showgrid="false"
   inkscape:zoom="0.35907766"
   inkscape:cx="438.62378"
   inkscape:cy="296.59322"
   inkscape:window-width="1366"
   inkscape:window-height="705"
   inkscape:window-x="-8"
   inkscape:window-y="-8"
   inkscape:window-maximized="1"
   inkscape:current-layer="Layer_1"
   showguides="true"
   inkscape:guide-bbox="true"><sodipodi:guide
     position="64.052996,720.86847"
     orientation="1,0"
     id="guide1985" /><sodipodi:guide
     position="456.72571,498.07544"
     orientation="1,0"
     id="guide2067" /><sodipodi:guide
     position="573.69205,459.08666"
     orientation="0,-1"
     id="guide2069" /><sodipodi:guide
     position="526.34853,83.123417"
     orientation="0,-1"
     id="guide2071" /></sodipodi:namedview>
<style
   type="text/css"
   id="style2">
	.st0{fill:#FF5000;}
</style>

<g
   id="g8"
   transform="translate(74.391557,54.91334)"
   style="fill:#00b9f3;fill-opacity:1"><g
     id="g6"
     style="fill:#00b9f3;fill-opacity:1"><path
       class="st0"
       d="M 312,0 H 56 C 25.1,0 0,25.1 0,56 v 96 160 c 0,30.9 25.1,56 56,56 h 256 c 30.9,0 56,-25.1 56,-56 V 152 56 C 368,25.1 342.9,0 312,0 Z m 40,312 c 0,22.1 -17.9,40 -40,40 H 56 C 33.9,352 16,334.1 16,312 V 160 h 66.8 c -0.2,0.6 -0.2,1.3 -0.3,2 -0.6,2.7 -1.1,5.3 -1.4,8 -0.1,1 -0.3,2.1 -0.4,3.1 -0.4,3.6 -0.6,7.2 -0.6,10.9 0,57.3 46.7,104 104,104 57.3,0 104,-46.7 104,-104 0,-3.7 -0.3,-7.3 -0.6,-10.9 -0.1,-1 -0.3,-2.1 -0.4,-3.1 -0.4,-2.7 -0.8,-5.5 -1.4,-8.1 -0.1,-0.6 -0.2,-1.3 -0.3,-1.9 H 352 Z M 96,184 c 0,-10.1 1.7,-20 5.1,-29.3 C 113.4,119.6 146.7,96 184,96 c 4.7,0 9.3,0.4 13.8,1.1 29.3,4.6 54.5,23.8 66.6,51.2 0.9,2.1 1.8,4.2 2.5,6.4 0,0 0,0 0,0 0,0 0,0 0,0 3.4,9.3 5,19.2 5,29.3 0,48.5 -39.5,88 -88,88 C 135.4,272 96,232.5 96,184 Z m 256,-40 h -72 c -0.2,-0.4 -0.4,-0.8 -0.5,-1.2 -0.5,-1.1 -1,-2.2 -1.5,-3.3 -0.6,-1.3 -1.2,-2.6 -1.9,-3.8 -0.6,-1.1 -1.2,-2.2 -1.8,-3.2 -0.7,-1.2 -1.4,-2.4 -2.1,-3.6 -0.7,-1 -1.3,-2.1 -2,-3.1 -0.8,-1.1 -1.6,-2.3 -2.4,-3.4 -0.7,-1 -1.5,-2 -2.3,-2.9 -0.8,-1.1 -1.7,-2.1 -2.6,-3.1 -0.8,-0.9 -1.6,-1.9 -2.5,-2.8 -0.9,-1 -1.9,-2 -2.8,-2.9 -0.9,-0.9 -1.8,-1.7 -2.7,-2.6 -1,-0.9 -2,-1.8 -3,-2.7 -0.9,-0.8 -1.9,-1.6 -2.8,-2.4 -1.1,-0.8 -2.1,-1.7 -3.2,-2.5 -1,-0.7 -2,-1.5 -3,-2.1 -1.1,-0.8 -2.3,-1.5 -3.4,-2.2 -1,-0.6 -2,-1.3 -3.1,-1.9 -1.2,-0.7 -2.4,-1.3 -3.6,-2 -1.1,-0.6 -2.1,-1.1 -3.2,-1.7 -1.2,-0.6 -2.5,-1.2 -3.8,-1.7 -1.1,-0.5 -2.2,-1 -3.3,-1.4 -1.3,-0.5 -2.7,-1 -4,-1.5 -1.1,-0.4 -2.2,-0.8 -3.3,-1.2 -1.4,-0.4 -2.8,-0.8 -4.3,-1.2 -1.1,-0.3 -2.2,-0.6 -3.3,-0.9 -1.5,-0.4 -3.1,-0.6 -4.6,-0.9 -1,-0.2 -2.1,-0.4 -3.1,-0.6 -1.7,-0.3 -3.5,-0.4 -5.2,-0.6 -0.9,-0.1 -1.8,-0.2 -2.7,-0.3 -2.7,-0.2 -5.3,-0.3 -8,-0.3 -2.7,0 -5.4,0.1 -8,0.3 -0.9,0.1 -1.8,0.2 -2.7,0.3 -1.8,0.2 -3.5,0.4 -5.2,0.6 -1.1,0.2 -2.1,0.4 -3.2,0.6 -1.5,0.3 -3.1,0.6 -4.6,0.9 -1.1,0.3 -2.2,0.6 -3.3,0.9 -1.4,0.4 -2.8,0.7 -4.2,1.2 -1.1,0.4 -2.3,0.8 -3.4,1.2 -1.3,0.5 -2.6,0.9 -3.9,1.4 -1.1,0.5 -2.3,1 -3.4,1.5 -1.2,0.5 -2.5,1.1 -3.7,1.7 -1.1,0.6 -2.2,1.2 -3.4,1.7 -1.2,0.6 -2.3,1.2 -3.4,1.9 -1.1,0.6 -2.2,1.3 -3.3,2 -1.1,0.7 -2.2,1.4 -3.2,2.1 -1.1,0.7 -2.1,1.5 -3.2,2.3 -1,0.8 -2,1.5 -3,2.3 -1,0.8 -2,1.7 -3,2.5 -0.9,0.8 -1.9,1.6 -2.8,2.5 -1,0.9 -1.9,1.8 -2.9,2.8 -0.9,0.9 -1.7,1.8 -2.6,2.7 -0.9,1 -1.8,2 -2.7,3 -0.8,0.9 -1.6,1.9 -2.4,2.9 -0.8,1 -1.6,2.1 -2.4,3.2 -0.8,1 -1.5,2.1 -2.2,3.1 -0.7,1.1 -1.5,2.2 -2.2,3.3 -0.7,1.1 -1.3,2.2 -2,3.4 -0.7,1.2 -1.3,2.3 -1.9,3.4 -0.6,1.2 -1.2,2.5 -1.8,3.7 -0.5,1.1 -1.1,2.2 -1.6,3.4 -0.2,0.4 -0.4,0.8 -0.6,1.2 H 16 V 56 C 16,33.9 33.9,16 56,16 h 256 c 22.1,0 40,17.9 40,40 z"
       id="path4-6"
       style="fill:#00b9f3;fill-opacity:1" /></g></g></svg>
