<?xml version="1.0" encoding="UTF-8" standalone="no"?>
<!-- Generator: Adobe Illustrator 24.1.2, SVG Export Plug-In . SVG Version: 6.00 Build 0)  -->

<svg
   version="1.1"
   id="Layer_1"
   x="0px"
   y="0px"
   viewBox="0 0 512 512"
   style="enable-background:new 0 0 512 512;"
   xml:space="preserve"
   sodipodi:docname="laravel-development.svg"
   inkscape:version="1.1 (c68e22c387, 2021-05-23)"
   xmlns:inkscape="http://www.inkscape.org/namespaces/inkscape"
   xmlns:sodipodi="http://sodipodi.sourceforge.net/DTD/sodipodi-0.dtd"
   xmlns="http://www.w3.org/2000/svg"
   xmlns:svg="http://www.w3.org/2000/svg"><defs
   id="defs31"><pattern
     id="EMFhbasepattern"
     patternUnits="userSpaceOnUse"
     width="6"
     height="6"
     x="0"
     y="0" /></defs><sodipodi:namedview
   id="namedview29"
   pagecolor="#ffffff"
   bordercolor="#666666"
   borderopacity="1.0"
   inkscape:pageshadow="2"
   inkscape:pageopacity="0.0"
   inkscape:pagecheckerboard="0"
   showgrid="false"
   inkscape:zoom="0.5"
   inkscape:cx="177"
   inkscape:cy="139"
   inkscape:window-width="1366"
   inkscape:window-height="705"
   inkscape:window-x="-8"
   inkscape:window-y="-8"
   inkscape:window-maximized="1"
   inkscape:current-layer="Layer_1"
   showguides="true"
   inkscape:guide-bbox="true"><sodipodi:guide
     position="64.052996,720.86847"
     orientation="1,0"
     id="guide1985" /><sodipodi:guide
     position="456.72571,498.07544"
     orientation="1,0"
     id="guide2067" /><sodipodi:guide
     position="526.34853,83.123417"
     orientation="0,-1"
     id="guide2071" /><sodipodi:guide
     position="-780,286"
     orientation="0,-1"
     id="guide21" /><sodipodi:guide
     position="159.77206,394.4078"
     orientation="1,0"
     id="guide23" /><sodipodi:guide
     position="401.92378,150.06708"
     orientation="1,0"
     id="guide25" /></sodipodi:namedview>
<style
   type="text/css"
   id="style2">
	.st0{fill:#FF5000;}
</style>

<path
   style="fill:#00b9f3;fill-opacity:0.843137;stroke-width:0.334706"
   d="m 229.23535,468.58641 c -1.47272,-0.8111 -36.79267,-21.12231 -78.4888,-45.13607 C 76.105344,380.46277 74.919905,379.76414 73.931274,378.18036 L 72.92716,376.57175 V 242.83004 109.08831 l 0.812132,-1.41791 c 0.446685,-0.77985 1.350386,-1.78149 2.008239,-2.22587 1.37947,-0.93181 75.618569,-43.67143 77.718889,-44.742932 1.67888,-0.856509 4.15492,-0.917811 5.65879,-0.140129 4.27629,2.211348 78.0143,44.920571 78.77006,45.623791 2.01941,1.879 1.88334,-4.36513 1.88334,86.4296 0,48.38749 0.12468,83.33388 0.297,83.26913 0.16335,-0.0614 14.69359,-8.39557 32.28943,-18.52046 l 31.99247,-18.40889 0.0102,-42.2759 c 0.007,-29.79868 0.11925,-42.7107 0.38075,-43.74911 0.20402,-0.81028 0.84416,-2.0069 1.4225,-2.65916 0.74172,-0.83653 12.29431,-7.65726 39.20815,-23.14878 20.98613,-12.07956 38.90969,-22.31983 39.83013,-22.75618 1.89867,-0.90005 3.38341,-1.00441 4.94768,-0.34773 1.26006,0.52897 75.56547,43.25134 78.10179,44.90511 1.17438,0.76576 1.93995,1.58202 2.42662,2.58736 l 0.71098,1.46868 v 45.44758 c 0,49.79134 0.1302,46.53781 -1.93999,48.47595 -0.49778,0.466 -17.58324,10.44333 -37.9677,22.17184 l -37.06265,21.3246 -0.0898,43.06016 -0.0898,43.06018 -0.7597,1.42215 c -0.41784,0.78216 -1.32156,1.78687 -2.00826,2.23266 -1.60136,1.03959 -153.19682,88.2828 -155.00286,89.20418 -2.23226,1.13881 -4.10646,0.93384 -7.23975,-0.79182 z m -2.09045,-89.9357 c -0.13888,-0.13634 -16.8205,-9.61528 -37.07028,-21.06432 -20.24977,-11.44904 -37.25097,-21.21117 -37.78042,-21.69363 -0.52945,-0.48245 -1.24159,-1.47965 -1.5825,-2.21602 -0.59824,-1.29212 -0.62016,-4.3684 -0.62834,-88.1953 l -0.009,-86.85648 -32.11883,-18.49257 C 100.2901,129.96148 85.755962,121.63982 85.65736,121.63982 c -0.09865,0 -0.17206,56.21824 -0.16326,124.92941 l 0.01597,124.92941 70.85819,40.75359 70.8582,40.75356 0.0851,-37.05356 c 0.0468,-20.3795 -0.0285,-37.16517 -0.16736,-37.30152 z m 84.71314,33.01278 69.80989,-40.16485 0.0132,-36.91323 c 0.0129,-35.0603 -0.0161,-36.89665 -0.57251,-36.58299 -0.32216,0.18163 -32.21555,18.38831 -70.87421,40.45932 l -70.28849,40.12906 -0.085,37.21325 -0.0851,37.21323 1.13624,-0.59446 c 0.62493,-0.32695 32.55068,-18.66867 70.94611,-40.75933 z m -7.42505,-84.26251 c 38.79833,-22.13668 70.49897,-40.39568 70.44585,-40.57552 -0.10907,-0.36922 -63.43501,-36.94871 -64.0116,-36.97555 -0.33553,-0.0156 -140.86925,80.73505 -141.45875,81.2822 -0.23997,0.22272 63.51313,36.50194 64.1627,36.5123 0.17565,0.002 32.06345,-18.10673 70.8618,-40.24343 z m -100.8864,-30.45201 23.84787,-13.72819 V 202.4303 c 0,-44.43477 -0.0973,-80.79048 -0.21629,-80.79048 -0.119,0 -14.6536,8.31234 -32.29922,18.47188 L 162.796,158.58358 v 80.91625 80.91626 l 8.45134,-4.86947 c 4.64825,-2.6782 19.18291,-11.04716 32.29925,-18.59765 z m 177.4897,-94.9333 c -0.36892,-0.25075 -14.86877,-8.62813 -32.22187,-18.6164 l -31.55112,-18.16047 -0.0851,36.67235 c -0.0478,20.60842 0.0429,36.8005 0.20737,36.96489 0.16089,0.1609 14.65856,8.56359 32.21703,18.67265 l 31.9245,18.38011 0.09,-36.72862 c 0.0894,-36.42954 0.0846,-36.73232 -0.58076,-37.18451 z m 46.51298,54.85735 c 17.02822,-9.79201 31.07404,-17.91297 31.21291,-18.04658 0.13889,-0.13361 0.21421,-16.75992 0.16734,-36.94734 l -0.0851,-36.7044 -32.13188,18.49842 -32.13188,18.49843 -0.0851,36.91232 -0.0851,36.91233 1.08927,-0.65976 c 0.5991,-0.36288 15.02146,-8.67141 32.04967,-18.46342 z m -6.39394,-84.45619 c 17.00928,-9.79461 30.92401,-17.95647 30.92167,-18.13746 -0.003,-0.32464 -62.65097,-36.57941 -63.75629,-36.89686 -0.57856,-0.16616 -65.02048,36.68031 -64.70431,36.99648 0.0888,0.0888 14.58598,8.47697 32.21583,18.64027 l 32.05427,18.47868 1.17146,-0.63638 c 0.64432,-0.35 15.08813,-8.65014 32.09737,-18.44473 z m -232.5456,-43.14777 c 17.64982,-10.16287 32.09059,-18.56712 32.09059,-18.67615 0,-0.31276 -64.23945,-37.203533 -64.51711,-37.050217 -8.6969,4.802101 -64.00229,36.908787 -63.93337,37.115527 0.0861,0.2582 63.77718,37.08876 64.13764,37.08876 0.0725,0 14.57243,-8.31507 32.22225,-18.47792 z"
   id="path25519" /></svg>
