<?xml version="1.0" encoding="UTF-8" standalone="no"?>
<!-- Generator: Adobe Illustrator 24.1.2, SVG Export Plug-In . SVG Version: 6.00 Build 0)  -->

<svg
   version="1.1"
   id="Layer_1"
   x="0px"
   y="0px"
   viewBox="0 0 512 512"
   style="enable-background:new 0 0 512 512;"
   xml:space="preserve"
   sodipodi:docname="logo-design.svg"
   inkscape:version="1.1 (c68e22c387, 2021-05-23)"
   xmlns:inkscape="http://www.inkscape.org/namespaces/inkscape"
   xmlns:sodipodi="http://sodipodi.sourceforge.net/DTD/sodipodi-0.dtd"
   xmlns="http://www.w3.org/2000/svg"
   xmlns:svg="http://www.w3.org/2000/svg"><defs
   id="defs31"><pattern
     id="EMFhbasepattern"
     patternUnits="userSpaceOnUse"
     width="6"
     height="6"
     x="0"
     y="0" /></defs><sodipodi:namedview
   id="namedview29"
   pagecolor="#ffffff"
   bordercolor="#666666"
   borderopacity="1.0"
   inkscape:pageshadow="2"
   inkscape:pageopacity="0.0"
   inkscape:pagecheckerboard="0"
   showgrid="false"
   inkscape:zoom="0.35907766"
   inkscape:cx="438.62378"
   inkscape:cy="296.59322"
   inkscape:window-width="1366"
   inkscape:window-height="705"
   inkscape:window-x="-8"
   inkscape:window-y="-8"
   inkscape:window-maximized="1"
   inkscape:current-layer="Layer_1"
   showguides="true"
   inkscape:guide-bbox="true"><sodipodi:guide
     position="64.052996,720.86847"
     orientation="1,0"
     id="guide1985" /><sodipodi:guide
     position="456.72571,498.07544"
     orientation="1,0"
     id="guide2067" /><sodipodi:guide
     position="526.34853,83.123417"
     orientation="0,-1"
     id="guide2071" /></sodipodi:namedview>
<style
   type="text/css"
   id="style2">
	.st0{fill:#FF5000;}
</style>

<g
   id="g12"
   transform="matrix(0.60293234,0,0,0.60293234,95.415616,120.17522)"
   style="fill:#00b9f3;fill-opacity:0.843137"><g
     id="g10"
     style="fill:#00b9f3;fill-opacity:0.843137"><path
       class="st0"
       d="M 468,455.8 400.2,292.2 c -1.7,-4.2 -6.5,-6.1 -10.7,-4.4 -4.2,1.7 -6.1,6.5 -4.4,10.7 l 61.3,147.9 -55.9,-16.2 c -3.7,-1.1 -7.6,0.6 -9.4,3.9 L 353,485 287.2,326.3 C 363.1,311.7 420.6,244.8 420.6,164.7 420.6,73.8 346.8,0 256,0 165.2,0 91.4,73.8 91.4,164.6 c 0,36.8 12.1,70.8 32.6,98.2 l -80,193 c -1.2,2.9 -0.6,6.2 1.5,8.6 2.1,2.3 5.3,3.3 8.4,2.4 l 65.9,-19.1 33.1,60.1 c 1.4,2.6 4.2,4.2 7.2,4.2 0.2,0 0.3,0 0.5,0 3.1,-0.2 5.9,-2.1 7.1,-5 L 231,354.1 c 1.7,-4.2 -0.3,-8.9 -4.4,-10.7 -4.2,-1.7 -8.9,0.3 -10.7,4.4 L 159,485 130.9,434 c -1.8,-3.3 -5.8,-5 -9.4,-3.9 L 65.6,446.3 135.8,277 c 30.1,32.2 72.8,52.3 120.2,52.3 4.9,0 9.7,-0.2 14.5,-0.6 L 344.4,507 c 1.2,2.9 4,4.9 7.1,5 0.2,0 0.3,0 0.5,0 3,0 5.7,-1.6 7.2,-4.2 l 33.1,-60.1 65.9,19.1 c 3,0.9 6.3,-0.1 8.4,-2.4 2,-2.4 2.6,-5.7 1.4,-8.6 z M 107.7,164.6 c 0,-81.8 66.5,-148.3 148.3,-148.3 81.8,0 148.3,66.5 148.3,148.3 0,81.8 -66.5,148.3 -148.3,148.3 -81.8,0 -148.3,-66.5 -148.3,-148.3 z"
       id="path4"
       style="fill:#00b9f3;fill-opacity:0.843137" /><path
       class="st0"
       d="m 350.4,133.9 c -0.9,-2.9 -3.4,-5 -6.4,-5.5 l -55,-9.2 -25.8,-49.4 c -1.4,-2.7 -4.2,-4.4 -7.2,-4.4 -3,0 -5.8,1.7 -7.2,4.4 l -25.8,49.4 -55,9.2 c -3,0.5 -5.5,2.6 -6.4,5.5 -0.9,2.9 -0.2,6.1 1.9,8.2 l 39.1,39.8 -8.2,55.1 c -0.4,3 0.8,6 3.3,7.8 2.5,1.8 5.7,2.1 8.4,0.7 l 49.9,-24.9 49.9,24.9 c 1.2,0.6 2.4,0.9 3.6,0.9 1.7,0 3.4,-0.5 4.8,-1.6 2.5,-1.8 3.7,-4.8 3.3,-7.8 l -8.2,-55.1 39.1,-39.8 c 2.1,-2.1 2.8,-5.3 1.9,-8.2 z m -55.5,39.5 c -1.8,1.8 -2.6,4.4 -2.3,6.9 l 6.5,43.7 -39.5,-19.7 c -1.1,-0.6 -2.4,-0.9 -3.6,-0.9 -1.2,0 -2.5,0.3 -3.6,0.9 l -39.6,19.7 6.5,-43.7 c 0.4,-2.5 -0.5,-5.1 -2.3,-6.9 l -30.9,-31.5 43.5,-7.3 c 2.5,-0.4 4.7,-2 5.9,-4.3 l 20.5,-39.1 20.4,39.1 c 1.2,2.3 3.4,3.9 5.9,4.3 l 43.5,7.3 z"
       id="path6"
       style="fill:#00b9f3;fill-opacity:0.843137" /><path
       class="st0"
       d="m 379.8,172.9 c -4.5,-0.6 -8.6,2.6 -9.2,7 C 363,237.1 313.7,280.2 256,280.2 192.3,280.2 140.4,228.3 140.4,164.6 140.4,100.9 192.3,49 256,49 c 57.8,0 107,43.1 114.6,100.3 0.6,4.5 4.7,7.6 9.2,7 4.5,-0.6 7.6,-4.7 7,-9.2 C 378.1,81.9 321.9,32.7 256,32.7 c -72.8,0 -131.9,59.2 -131.9,131.9 0,72.7 59.1,132 131.9,132 65.9,0 122.1,-49.2 130.8,-114.5 0.6,-4.5 -2.6,-8.6 -7,-9.2 z"
       id="path8"
       style="fill:#00b9f3;fill-opacity:0.843137" /></g></g></svg>
