<?xml version="1.0" encoding="UTF-8" standalone="no"?>
<!-- Generator: Adobe Illustrator 24.1.2, SVG Export Plug-In . SVG Version: 6.00 Build 0)  -->

<svg
   version="1.1"
   id="Layer_1"
   x="0px"
   y="0px"
   viewBox="0 0 512 512"
   style="enable-background:new 0 0 512 512;"
   xml:space="preserve"
   sodipodi:docname="Payment-gateway-integration.svg"
   inkscape:version="1.1 (c68e22c387, 2021-05-23)"
   xmlns:inkscape="http://www.inkscape.org/namespaces/inkscape"
   xmlns:sodipodi="http://sodipodi.sourceforge.net/DTD/sodipodi-0.dtd"
   xmlns="http://www.w3.org/2000/svg"
   xmlns:svg="http://www.w3.org/2000/svg"><defs
   id="defs31"><pattern
     id="EMFhbasepattern"
     patternUnits="userSpaceOnUse"
     width="6"
     height="6"
     x="0"
     y="0" /></defs><sodipodi:namedview
   id="namedview29"
   pagecolor="#ffffff"
   bordercolor="#666666"
   borderopacity="1.0"
   inkscape:pageshadow="2"
   inkscape:pageopacity="0.0"
   inkscape:pagecheckerboard="0"
   showgrid="false"
   inkscape:zoom="0.5"
   inkscape:cx="177"
   inkscape:cy="139"
   inkscape:window-width="1366"
   inkscape:window-height="705"
   inkscape:window-x="-8"
   inkscape:window-y="-8"
   inkscape:window-maximized="1"
   inkscape:current-layer="Layer_1"
   showguides="true"
   inkscape:guide-bbox="true"><sodipodi:guide
     position="64.052996,720.86847"
     orientation="1,0"
     id="guide1985" /><sodipodi:guide
     position="456.72571,498.07544"
     orientation="1,0"
     id="guide2067" /><sodipodi:guide
     position="526.34853,83.123417"
     orientation="0,-1"
     id="guide2071" /><sodipodi:guide
     position="-780,286"
     orientation="0,-1"
     id="guide21" /><sodipodi:guide
     position="159.77206,394.4078"
     orientation="1,0"
     id="guide23" /><sodipodi:guide
     position="401.92378,150.06708"
     orientation="1,0"
     id="guide25" /></sodipodi:namedview>
<style
   type="text/css"
   id="style2">
	.st0{fill:#FF5000;}
</style>

<path
   style="fill:#00b9f3;fill-opacity:0.843137;stroke-width:0.732876"
   d="m 190.30177,435.15472 c -4.13498,-0.98919 -9.29652,-3.829 -13.1724,-7.24726 -7.05036,-6.21795 -11.65655,-20.49608 -8.04777,-24.94625 1.4704,-1.81321 1.63163,-1.83598 15.56784,-2.19862 l 14.08204,-0.36644 6.84822,-22.71916 c 3.76652,-12.49553 6.85865,-22.95652 6.87139,-23.24664 0.0127,-0.29011 -24.79384,-0.61991 -55.12575,-0.73287 l -55.14891,-0.20539 -4.7637,-2.27951 c -6.9795,-3.3398 -11.19287,-7.43047 -14.45792,-14.03685 l -2.76466,-5.5939 V 219.00935 106.43687 l 2.76466,-5.59391 c 3.26505,-6.60637 7.47842,-10.69704 14.45792,-14.03684 l 4.7637,-2.27951 h 153.5755 153.57555 l 5.5939,2.76466 c 6.60636,3.26505 10.69705,7.47843 14.03684,14.45793 l 2.27954,4.76369 0.22609,109.93139 c 0.16937,82.34071 0.01,110.94306 -0.63731,113.96221 -1.96249,9.16229 -7.40952,16.12194 -15.90428,20.32094 l -5.59309,2.76466 -55.18776,0.20539 c -30.3533,0.11296 -55.17735,0.44276 -55.1646,0.73287 0.0125,0.29012 3.10483,10.75111 6.87137,23.24664 l 6.84821,22.71916 14.08207,0.36644 c 13.70544,0.35664 14.11944,0.4127 15.48134,2.09659 1.6481,2.03783 1.78082,5.57087 0.40301,10.72874 -2.37503,8.89121 -7.5056,15.17821 -15.68589,19.22162 l -5.59323,2.76465 -64.16535,0.11935 c -35.86577,0.0667 -65.37872,-0.17093 -66.91657,-0.53882 z m 129.45376,-11.83137 c 3.27808,-0.96852 10.71179,-7.69152 10.71179,-9.68764 0,-1.0334 -7.41019,-1.14711 -74.75335,-1.14711 -67.34319,0 -74.75338,0.11371 -74.75338,1.14711 0,1.78236 7.39693,8.71827 10.26027,9.62077 3.84307,1.21132 124.44889,1.27407 128.53467,0.0668 z m -19.35929,-23.11042 c -0.0125,-0.30231 -3.10548,-10.77328 -6.87276,-23.26881 l -6.84953,-22.71916 h -30.95998 -30.96005 l -6.84953,22.71916 c -3.76725,12.49553 -6.85997,22.9665 -6.87272,23.26881 -0.0128,0.30231 20.09431,0.54966 44.6823,0.54966 24.58799,0 44.69495,-0.24735 44.68227,-0.54966 z m 107.98319,-59.24569 c 4.14581,-1.41264 9.35062,-6.85902 10.62751,-11.12079 0.48824,-1.62974 0.87124,-7.30004 0.87124,-12.89997 v -9.99202 H 255.71397 91.54973 v 10.12971 c 0,12.63913 0.88236,15.66743 5.8722,20.15373 1.94791,1.75135 4.63903,3.53543 5.98027,3.96462 1.68858,0.54035 48.43741,0.80336 151.99795,0.85517 134.90766,0.0675 149.89439,-0.0394 152.97928,-1.09045 z m 11.49875,-137.81292 c 0,-69.01188 -0.21825,-92.80249 -0.87124,-94.98207 -0.47923,-1.59937 -2.29698,-4.49365 -4.03946,-6.43173 -5.75484,-6.40076 9.09667,-5.85433 -159.11588,-5.85433 -113.07289,0 -149.81062,0.21055 -152.01581,0.87124 -1.59937,0.47918 -4.49365,2.29693 -6.43173,4.03943 -4.13521,3.71791 -5.85433,7.90966 -5.85433,14.27466 v 4.2667 h 26.04691 26.04692 l 20.46089,-5.86301 c 11.25348,-3.22465 20.97099,-5.86301 21.59446,-5.86301 0.62346,0 11.68299,5.27671 24.57672,11.72602 l 23.44312,11.72601 h 53.23618 c 38.28141,0 54.03363,0.23894 56.07498,0.85055 4.021,1.2047 8.59766,5.40193 10.61556,9.7354 1.71742,3.6882 1.72534,3.8342 1.73245,31.94175 l 0.007,28.23662 5.07128,1.3064 c 9.20411,2.37104 18.03197,8.96399 23.66801,17.67615 10.03659,15.51447 7.58995,37.30634 -5.67811,50.57445 -13.26813,13.26811 -35.05998,15.71475 -50.57445,5.67815 -8.71221,-5.63606 -15.30516,-14.46388 -17.67616,-23.668 l -1.30657,-5.07131 -57.55165,-0.007 -57.55168,-0.007 -3.70513,-1.72531 c -4.33347,-2.01789 -8.5307,-6.59457 -9.7354,-10.61552 -0.46781,-1.56104 -0.85055,-4.69658 -0.85055,-6.96754 v -4.129 H 135.52195 91.5494 v 35.17804 35.17805 h 164.16424 164.16421 z m -58.31582,65.82258 c 6.61318,-3.09467 10.89142,-7.30285 14.17119,-13.93906 2.58646,-5.23327 2.73714,-5.92555 2.73714,-12.57646 0,-6.65091 -0.15068,-7.34319 -2.73714,-12.57646 -3.29655,-6.67015 -7.54034,-10.825 -14.35382,-14.05294 -4.42716,-2.0974 -5.56121,-2.3192 -11.85764,-2.3192 -6.2965,0 -7.43048,0.2218 -11.85764,2.3192 -6.81355,3.22794 -11.05734,7.38279 -14.35389,14.05294 -2.58331,5.22696 -2.73707,5.93144 -2.73707,12.53845 0,6.33914 0.21906,7.46269 2.31919,11.89566 2.94499,6.21629 7.13792,10.76679 12.60627,13.6814 5.77279,3.07687 8.932,3.77275 15.67153,3.45204 4.39886,-0.20932 6.74172,-0.76744 10.39188,-2.47557 z m -26.98705,-15.50342 -6.67306,-6.57692 4.20414,-4.21516 4.20415,-4.21518 3.68285,3.62744 3.68277,3.62743 9.52013,-9.499 9.52013,-9.499 4.21272,4.21735 4.21279,4.21735 -12.50191,12.44631 c -15.59296,15.5236 -14.5319,15.26481 -24.06471,5.86938 z m -24.37964,-21.94642 c 3.37658,-13.10774 15.30817,-25.0216 28.44886,-28.40673 l 5.01455,-1.29178 v -3.13562 -3.13561 h -56.71221 -56.71214 l 1.08656,3.11472 c 2.1049,6.03363 0.0132,14.65089 -4.81983,19.85599 -1.06414,1.14606 -3.58369,2.95779 -5.5991,4.02608 -3.49958,1.85497 -4.24952,1.95345 -16.67296,2.18964 l -13.00854,0.24731 v 4.00478 c 0,3.27482 0.32788,4.33266 1.79888,5.80365 l 1.79887,1.79888 h 57.0353 57.03534 z m -72.07072,-18.38072 v -5.86301 h 5.863 5.86301 v 5.86301 5.86301 h -5.86301 -5.863 z m 23.45203,0 v -5.86301 h 5.863 5.86301 v 5.86301 5.86301 h -5.86301 -5.863 z m 23.45203,0 v -5.86301 h 5.86301 5.863 v 5.86301 5.86301 h -5.863 -5.86301 z m -67.2553,-2.76238 c 2.06188,-2.06207 2.39578,-2.90264 2.39578,-6.03213 0,-3.12912 -0.33405,-3.97031 -2.39504,-6.03213 l -2.39503,-2.39594 -23.8053,-0.21205 -23.8053,-0.21203 v -5.83419 -5.83419 h 5.86301 5.86301 v -18.78653 c 0,-12.60783 0.29313,-19.77863 0.89127,-21.80306 1.18939,-4.02557 7.26064,-10.09682 11.28621,-11.28621 1.65909,-0.4902 5.78152,-0.91021 9.16095,-0.93337 l 6.14442,-0.0421 -11.14227,-5.60958 -11.14228,-5.6096 -20.00495,5.67418 -20.00496,5.67418 -26.56675,-0.0225 -26.56675,-0.0225 v 41.05326 41.05326 l 61.91411,-0.19542 61.91412,-0.19543 z m 125.88537,-32.41567 v -5.863 h -76.2191 -76.21912 v 5.863 5.86301 h 76.21912 76.2191 z m 0,-24.58465 c 0,-6.4503 -0.14027,-7.13587 -1.79891,-8.79451 l -1.79885,-1.79888 h -72.62134 -72.62137 l -1.79887,1.79888 c -1.65866,1.65864 -1.79888,2.34421 -1.79888,8.79451 v 6.99563 h 76.21912 76.2191 z"
   id="path38" /></svg>
