<?xml version="1.0" encoding="UTF-8" standalone="no"?>
<!-- Generator: Adobe Illustrator 24.1.2, SVG Export Plug-In . SVG Version: 6.00 Build 0)  -->

<svg
   version="1.1"
   id="Layer_1"
   x="0px"
   y="0px"
   viewBox="0 0 512 512"
   style="enable-background:new 0 0 512 512;"
   xml:space="preserve"
   sodipodi:docname="seo.svg"
   inkscape:version="1.1 (c68e22c387, 2021-05-23)"
   xmlns:inkscape="http://www.inkscape.org/namespaces/inkscape"
   xmlns:sodipodi="http://sodipodi.sourceforge.net/DTD/sodipodi-0.dtd"
   xmlns="http://www.w3.org/2000/svg"
   xmlns:svg="http://www.w3.org/2000/svg"><defs
   id="defs31"><pattern
     id="EMFhbasepattern"
     patternUnits="userSpaceOnUse"
     width="6"
     height="6"
     x="0"
     y="0" /></defs><sodipodi:namedview
   id="namedview29"
   pagecolor="#ffffff"
   bordercolor="#666666"
   borderopacity="1.0"
   inkscape:pageshadow="2"
   inkscape:pageopacity="0.0"
   inkscape:pagecheckerboard="0"
   showgrid="false"
   inkscape:zoom="0.35907766"
   inkscape:cx="438.62378"
   inkscape:cy="296.59322"
   inkscape:window-width="1366"
   inkscape:window-height="705"
   inkscape:window-x="-8"
   inkscape:window-y="-8"
   inkscape:window-maximized="1"
   inkscape:current-layer="Layer_1"
   showguides="true"
   inkscape:guide-bbox="true"><sodipodi:guide
     position="64.052996,720.86847"
     orientation="1,0"
     id="guide1985" /><sodipodi:guide
     position="456.72571,498.07544"
     orientation="1,0"
     id="guide2067" /><sodipodi:guide
     position="526.34853,83.123417"
     orientation="0,-1"
     id="guide2071" /></sodipodi:namedview>
<style
   type="text/css"
   id="style2">
	.st0{fill:#FF5000;}
</style>

<g
   id="g18"
   transform="matrix(0.76711711,0,0,0.76711711,64.465759,41.53825)"
   style="fill:#00b9f3;fill-opacity:0.843137"><g
     id="g16"
     style="fill:#00b9f3;fill-opacity:0.843137"><path
       class="st0"
       d="M 503.8,24.5 H 8.2 C 3.7,24.5 0,28.2 0,32.7 v 446.6 c 0,4.5 3.7,8.2 8.2,8.2 h 495.7 c 4.5,0 8.2,-3.7 8.2,-8.2 v -87.1 c 0,-4.5 -3.7,-8.2 -8.2,-8.2 -4.5,0 -8.2,3.7 -8.2,8.2 v 79 H 16.3 v -365 h 479.3 v 253.3 c 0,4.5 3.7,8.2 8.2,8.2 4.5,0 8.2,-3.7 8.2,-8.2 V 32.7 c 0,-4.5 -3.7,-8.2 -8.2,-8.2 z M 16.3,40.9 h 302.3 v 49 H 16.3 Z m 318.7,49 v -49 h 160.7 v 49 z"
       id="path4-6"
       style="fill:#00b9f3;fill-opacity:0.843137" /><path
       class="st0"
       d="m 415.6,56.6 c -4.8,0 -8.7,3.9 -8.7,8.7 0,4.8 3.9,8.7 8.7,8.7 4.8,0 8.7,-3.9 8.7,-8.7 0,-4.8 -3.9,-8.7 -8.7,-8.7 z"
       id="path6"
       style="fill:#00b9f3;fill-opacity:0.843137" /><path
       class="st0"
       d="m 370.9,56.6 c -4.8,0 -8.7,3.9 -8.7,8.7 0,4.8 3.9,8.7 8.7,8.7 4.8,0 8.7,-3.9 8.7,-8.7 0,-4.8 -3.9,-8.7 -8.7,-8.7 z"
       id="path8"
       style="fill:#00b9f3;fill-opacity:0.843137" /><path
       class="st0"
       d="m 460.3,56.6 c -4.8,0 -8.7,3.9 -8.7,8.7 0,4.8 3.9,8.7 8.7,8.7 4.8,0 8.7,-3.9 8.7,-8.7 0,-4.8 -3.9,-8.7 -8.7,-8.7 z"
       id="path10"
       style="fill:#00b9f3;fill-opacity:0.843137" /><path
       class="st0"
       d="m 293.8,357.8 c 0,2.2 0.9,4.2 2.4,5.8 l 63.8,63.8 c 1.5,1.5 3.6,2.4 5.8,2.4 2.2,0 4.2,-0.9 5.8,-2.4 l 23.1,-23.1 c 3.2,-3.2 3.2,-8.4 0,-11.6 l -63.8,-63.8 c -3.2,-3.2 -8.4,-3.2 -11.6,0 l -5.8,5.8 -11.8,-11.8 c 35.8,-41.7 33.9,-104.7 -5.5,-144.2 -20.1,-20.1 -46.7,-31.1 -75.1,-31.1 -28.4,0 -55,11 -75.1,31.1 -41.4,41.4 -41.4,108.8 0,150.2 20.1,20.1 46.7,31.1 75.1,31.1 25.6,0 49.9,-9 69.1,-25.6 l 11.8,11.8 -5.8,5.8 c -1.5,1.6 -2.4,3.6 -2.4,5.8 z M 157.6,317.4 c -35,-35 -35,-92.1 0,-127.1 17,-17 39.5,-26.3 63.5,-26.3 24,0 46.6,9.3 63.5,26.3 35,35 35,92.1 0,127.1 -17,17 -39.5,26.3 -63.5,26.3 -24,0 -46.5,-9.4 -63.5,-26.3 z m 219.7,81.1 -11.5,11.5 -52.2,-52.2 5.8,-5.8 c 0,0 5.8,-5.8 5.8,-5.8 z"
       id="path12"
       style="fill:#00b9f3;fill-opacity:0.843137" /><path
       class="st0"
       d="m 273.1,201.8 c -13.9,-13.9 -32.4,-21.5 -52,-21.5 -19.6,0 -38.1,7.6 -52,21.5 -28.7,28.7 -28.7,75.3 0,104 13.9,13.9 32.4,21.5 52,21.5 19.6,0 38.1,-7.6 52,-21.5 28.7,-28.7 28.7,-75.3 0,-104 z m -11.5,92.5 c -10.8,10.8 -25.2,16.8 -40.4,16.8 -15.2,0 -29.6,-5.9 -40.4,-16.8 -22.3,-22.3 -22.3,-58.6 0,-80.9 10.8,-10.8 25.2,-16.8 40.4,-16.8 15.2,0 29.6,5.9 40.4,16.8 22.3,22.3 22.3,58.6 0,80.9 z"
       id="path14"
       style="fill:#00b9f3;fill-opacity:0.843137" /></g></g></svg>
