<?xml version="1.0" encoding="UTF-8" standalone="no"?>
<!-- Generator: Adobe Illustrator 24.1.2, SVG Export Plug-In . SVG Version: 6.00 Build 0)  -->

<svg
   version="1.1"
   id="Layer_1"
   x="0px"
   y="0px"
   viewBox="0 0 512 512"
   style="enable-background:new 0 0 512 512;"
   xml:space="preserve"
   sodipodi:docname="server-management.svg"
   inkscape:version="1.1 (c68e22c387, 2021-05-23)"
   xmlns:inkscape="http://www.inkscape.org/namespaces/inkscape"
   xmlns:sodipodi="http://sodipodi.sourceforge.net/DTD/sodipodi-0.dtd"
   xmlns="http://www.w3.org/2000/svg"
   xmlns:svg="http://www.w3.org/2000/svg"><defs
   id="defs31"><pattern
     id="EMFhbasepattern"
     patternUnits="userSpaceOnUse"
     width="6"
     height="6"
     x="0"
     y="0" /></defs><sodipodi:namedview
   id="namedview29"
   pagecolor="#ffffff"
   bordercolor="#666666"
   borderopacity="1.0"
   inkscape:pageshadow="2"
   inkscape:pageopacity="0.0"
   inkscape:pagecheckerboard="0"
   showgrid="false"
   inkscape:zoom="0.35907766"
   inkscape:cx="-275.70638"
   inkscape:cy="296.59322"
   inkscape:window-width="1366"
   inkscape:window-height="705"
   inkscape:window-x="-8"
   inkscape:window-y="-8"
   inkscape:window-maximized="1"
   inkscape:current-layer="Layer_1"
   showguides="true"
   inkscape:guide-bbox="true"><sodipodi:guide
     position="64.052996,720.86847"
     orientation="1,0"
     id="guide1985" /><sodipodi:guide
     position="456.72571,498.07544"
     orientation="1,0"
     id="guide2067" /><sodipodi:guide
     position="526.34853,83.123417"
     orientation="0,-1"
     id="guide2071" /><sodipodi:guide
     position="459.51063,406.17331"
     orientation="0,-1"
     id="guide21" /><sodipodi:guide
     position="159.77206,394.4078"
     orientation="1,0"
     id="guide23" /><sodipodi:guide
     position="401.92378,150.06708"
     orientation="1,0"
     id="guide25" /></sodipodi:namedview>
<style
   type="text/css"
   id="style2">
	.st0{fill:#FF5000;}
</style>

<path
   style="fill:#00b9f3;fill-opacity:0.843137;stroke-width:0.624861"
   d="m 128.48125,372.80621 v -48.42673 h 89.05046 89.05049 l 2.09926,3.28052 c 2.70319,4.22427 6.16349,8.58799 10.669,13.45447 l 3.5972,3.88543 h -82.23653 -82.23654 v 27.80826 27.80824 l 98.57182,-0.15813 98.57185,-0.15817 0.16552,-18.58962 c 0.091,-10.22429 0.32806,-18.58962 0.5267,-18.58962 0.19866,0 3.21724,0.59906 6.70798,1.33121 4.44359,0.93204 8.82941,1.35363 14.62603,1.40595 l 8.27929,0.0749 1.3e-4,27.6501 1.3e-4,27.65011 H 257.20265 128.48125 Z m 223.70027,-29.37257 c 0,-4.12002 1.6839,-14.69738 3.48103,-21.86604 3.42423,-13.65903 10.58854,-23.87793 17.92047,-25.56108 l 1.71837,-0.39447 v 25.31878 25.31878 h -11.55992 -11.55995 z m 25.61932,-22.25134 v -25.06733 l 1.40594,0.41008 c 6.46687,1.8862 10.85293,2.42606 19.5269,2.4035 7.51256,-0.0194 10.35395,-0.28671 14.31555,-1.34609 2.71845,-0.72696 5.17883,-1.32173 5.46754,-1.32173 0.28869,0 0.52491,11.24749 0.52491,24.99445 v 24.99443 h -20.62042 -20.62042 z m 43.74027,-0.23956 c 0,-19.07987 0.18208,-25.30687 0.74001,-25.30687 1.78669,0 6.23449,2.79027 8.77184,5.50289 4.89542,5.23361 8.07995,12.03721 10.5486,22.53652 1.33152,5.66304 3.02647,17.09001 3.04722,20.54354 l 0.0124,2.03079 H 433.10122 421.54129 Z M 128.48125,259.39392 V 210.65475 H 232.2082 c 57.04981,0 103.72694,0.12272 103.72694,0.27281 0,0.15001 -2.03861,1.62574 -4.53023,3.27935 -6.02755,4.00026 -17.48725,15.53853 -21.60661,21.75473 -9.93401,14.99061 -14.14441,29.08216 -14.09599,47.17699 0.0268,10.02833 0.3801,12.71115 3.06484,23.27609 l 0.43667,1.71837 h -85.36129 -85.36128 z m 65.39046,17.80938 c 3.96732,-1.77041 7.64328,-5.36282 9.64104,-9.42191 1.22338,-2.48566 1.51219,-4.03573 1.50465,-8.07504 -0.0111,-5.81304 -1.29975,-9.26808 -4.97505,-13.33618 -7.16295,-7.92852 -20.36057,-8.11855 -27.96671,-0.40268 -3.94445,4.00138 -5.16542,7.24888 -5.16542,13.73886 0,4.67565 0.2462,6.09781 1.46047,8.43562 2.88212,5.549 7.46263,9.15611 13.21591,10.40741 4.2861,0.93219 8.12142,0.51195 12.28511,-1.34608 z m 70.2044,0.80246 c 10.76443,-3.30519 16.31019,-16.84118 11.08148,-27.04746 -3.52825,-6.88707 -9.55699,-10.56097 -17.33008,-10.56097 -10.64902,0 -18.54496,7.42008 -19.21747,18.05931 -0.88023,13.92543 11.8798,23.72072 25.46607,19.54912 z m 129.97112,15.70857 c -9.30336,-1.15409 -17.3206,-6.61023 -22.41125,-15.2519 -3.07804,-5.2252 -4.59343,-13.86007 -3.44239,-19.61525 l 0.39054,-1.95269 h 29.25349 c 20.19755,0 29.38207,0.20803 29.66885,0.67203 0.82245,1.33078 0.45366,10.9192 -0.55321,14.38265 -4.15014,14.27604 -18.22599,23.58628 -32.90603,21.76516 z M 364.9152,251.29268 c 1.70331,-10.652 10.45326,-24.61029 17.81306,-28.41619 l 1.94605,-1.00631 v 11.57596 11.57597 h 13.12208 13.12208 v -11.55992 c 0,-6.44247 0.24922,-11.55992 0.56295,-11.55992 0.30963,0 2.31853,1.31969 4.46422,2.93262 7.25573,5.45424 13.65436,16.28833 15.88979,26.90449 l 0.42763,2.03078 h -33.87202 -33.87202 z m 22.67514,-9.18659 c -0.22912,-0.22911 -0.4166,-5.13667 -0.4166,-10.9057 v -10.48911 l 2.34324,-0.66167 c 3.97617,-1.12279 10.86289,-1.3595 14.84046,-0.51011 l 3.74915,0.80061 0.17064,11.09128 0.17063,11.09129 h -10.22047 c -5.62125,0 -10.40795,-0.18746 -10.63705,-0.41659 z m 12.97329,-4.31451 c 2.182,-2.18201 0.69033,-5.89154 -2.3691,-5.89154 -2.55153,0 -3.74054,3.6566 -1.86345,5.73076 1.26918,1.40242 2.92791,1.46543 4.23255,0.16078 z M 128.48125,149.7308 v -48.42674 h 128.7214 128.72139 v 48.42674 48.42673 H 257.20265 128.48125 Z m 65.29798,17.90224 c 9.40425,-4.46462 13.75702,-14.79502 10.21871,-24.25202 -4.67972,-12.50762 -19.91143,-16.66647 -30.47089,-8.31969 -6.58433,5.20462 -8.95556,15.2899 -5.39366,22.94045 4.56037,9.79518 16.14025,14.14399 25.64584,9.63126 z m 72.29324,0.0137 c 3.73788,-1.82869 7.52071,-5.60758 9.36829,-9.35853 2.07237,-4.2073 2.06729,-12.29277 -0.0111,-16.51131 -5.97296,-12.12777 -21.87553,-14.89541 -31.32009,-5.45085 -8.44349,8.4435 -7.33213,22.27499 2.36268,29.4046 3.86288,2.84079 6.71872,3.67625 11.97937,3.5044 3.38464,-0.11059 5.50137,-0.55178 7.62008,-1.58831 z m 74.35629,-0.26861 c 7.44097,-3.44579 11.40956,-10.13702 11.02259,-18.58463 -0.77218,-16.85722 -20.94593,-24.5636 -32.93021,-12.57933 -8.48307,8.48307 -7.11767,22.66463 2.8571,29.67518 5.36529,3.77085 12.85799,4.35641 19.05052,1.48876 z"
   id="path6570" /></svg>
