<?xml version="1.0" encoding="UTF-8" standalone="no"?>
<!-- Generator: Adobe Illustrator 24.1.2, SVG Export Plug-In . SVG Version: 6.00 Build 0)  -->

<svg
   version="1.1"
   id="Layer_1"
   x="0px"
   y="0px"
   viewBox="0 0 512 512"
   style="enable-background:new 0 0 512 512;"
   xml:space="preserve"
   sodipodi:docname="vps-hosting.svg"
   inkscape:version="1.1 (c68e22c387, 2021-05-23)"
   xmlns:inkscape="http://www.inkscape.org/namespaces/inkscape"
   xmlns:sodipodi="http://sodipodi.sourceforge.net/DTD/sodipodi-0.dtd"
   xmlns="http://www.w3.org/2000/svg"
   xmlns:svg="http://www.w3.org/2000/svg"><defs
   id="defs31"><pattern
     id="EMFhbasepattern"
     patternUnits="userSpaceOnUse"
     width="6"
     height="6"
     x="0"
     y="0" /></defs><sodipodi:namedview
   id="namedview29"
   pagecolor="#ffffff"
   bordercolor="#666666"
   borderopacity="1.0"
   inkscape:pageshadow="2"
   inkscape:pageopacity="0.0"
   inkscape:pagecheckerboard="0"
   showgrid="false"
   inkscape:zoom="0.48840154"
   inkscape:cx="435.09281"
   inkscape:cy="134.11096"
   inkscape:window-width="1366"
   inkscape:window-height="705"
   inkscape:window-x="-8"
   inkscape:window-y="-8"
   inkscape:window-maximized="1"
   inkscape:current-layer="Layer_1"
   showguides="true"
   inkscape:guide-bbox="true"><sodipodi:guide
     position="64.052996,720.86847"
     orientation="1,0"
     id="guide1985" /><sodipodi:guide
     position="456.72571,498.07544"
     orientation="1,0"
     id="guide2067" /><sodipodi:guide
     position="526.34853,83.123417"
     orientation="0,-1"
     id="guide2071" /><sodipodi:guide
     position="-780,286"
     orientation="0,-1"
     id="guide21" /><sodipodi:guide
     position="159.77206,394.4078"
     orientation="1,0"
     id="guide23" /><sodipodi:guide
     position="401.92378,150.06708"
     orientation="1,0"
     id="guide25" /></sodipodi:namedview>
<style
   type="text/css"
   id="style2">
	.st0{fill:#FF5000;}
</style>

<path
   style="fill:#00b9f3;fill-opacity:0.843137;stroke-width:0.668512"
   d="m 241.61868,430.64445 c -13.87875,-1.34262 -31.08604,-5.18421 -43.32761,-9.67306 -8.48078,-3.10981 -25.01346,-11.21577 -32.45401,-15.91218 -9.75509,-6.15732 -18.45097,-13.08756 -27.84587,-22.19195 -15.33651,-14.86227 -25.04099,-28.13528 -34.21457,-46.79595 -6.27204,-12.75838 -9.28135,-20.74342 -12.43516,-32.99562 -13.51765,-52.51494 -1.65302,-107.61194 32.33919,-150.17707 6.66715,-8.34863 21.24222,-22.53422 29.6643,-28.87162 23.80484,-17.91252 49.89012,-28.69487 80.80739,-33.401723 11.58464,-1.763652 35.41436,-1.594921 47.41752,0.335747 31.99993,5.147075 58.78665,16.941176 83.27687,36.666526 11.88677,9.57405 26.39067,25.52036 34.09418,37.48483 l 2.67406,4.15313 13.20314,0.006 13.20314,0.006 v 90.91783 90.91784 l -13.20314,0.0231 -13.20314,0.0231 -4.12612,6.16063 c -22.1735,33.10692 -59.92589,59.10247 -100.19787,68.9943 -16.31566,4.00754 -39.9813,5.84835 -55.6723,4.33041 z m 38.32683,-11.66179 c 14.29739,-2.25789 28.39979,-6.31977 40.75629,-11.7389 l 6.44171,-2.82512 -19.46125,-12.97878 -19.46124,-12.97879 -20.56195,7.71833 -20.56195,7.71833 h -18.4587 -18.45871 l -9.74038,5.84768 c -5.3572,3.21622 -9.74037,6.0513 -9.74037,6.30018 0,0.6289 12.3351,5.36542 20.38966,7.82937 7.95885,2.43466 21.07042,5.11958 29.4146,6.02336 8.3274,0.90195 31.31154,0.36838 39.44229,-0.91566 z m -53.57318,-35.78114 h 19.12284 l 22.11859,-8.32987 22.11859,-8.32987 24.06239,16.0508 24.0624,16.05079 4.46986,-2.81121 c 12.39065,-7.79277 25.95109,-19.33039 34.94055,-29.72844 5.93319,-6.86289 11.3114,-13.78106 11.3114,-14.55022 0,-0.24235 -24.81856,-0.44063 -55.15236,-0.44063 h -55.15236 v -31.39424 -31.39424 l -3.17544,-0.94297 c -1.74649,-0.51863 -9.81806,-2.82994 -17.93681,-5.13625 l -14.76138,-4.19327 -8.80372,-17.62239 -8.80373,-17.6224 v -12.59347 -12.59347 l 6.95025,-5.50336 6.95024,-5.50337 6.51746,-26.1889 c 3.5846,-14.40389 6.75096,-26.65169 7.03634,-27.21734 0.2854,-0.56563 6.56175,-4.40123 13.94746,-8.52354 l 13.42855,-7.49511 24.22751,-0.0289 24.22752,-0.0289 8.66897,-4.81781 c 4.76793,-2.64979 8.62132,-5.11864 8.5631,-5.48632 -0.18215,-1.15014 -13.52131,-8.83155 -21.96083,-12.64621 -43.10472,-19.483355 -92.76513,-19.035167 -134.99056,1.2183 -13.89407,6.66431 -27.79081,15.74784 -36.85966,24.09313 l -3.25115,2.99176 7.0799,0.0265 7.07991,0.0265 12.47412,9.36779 12.47411,9.3678 v 24.81357 24.81357 l -6.08845,10.64747 -6.08845,10.64747 -10.81481,5.39565 -10.81481,5.39564 -4.48917,6.79774 -4.48917,6.79773 v 11.05891 11.05885 l 15.54294,10.37313 15.54293,10.37314 4.51247,10.62984 c 2.48186,5.84641 4.52107,10.92859 4.53158,11.29374 0.0105,0.36514 -1.38135,5.62761 -3.09301,11.69437 l -3.11213,11.03047 -15.99575,8.69068 -15.99577,8.69068 -6.72744,0.33426 -6.72745,0.33425 5.70377,6.35088 c 9.09645,10.1285 20.97654,20.00941 33.42691,27.80186 l 6.5509,4.10006 14.259,-8.59731 14.259,-8.59731 z m -70.54592,-38.84647 c 6.86254,-3.71681 12.82476,-7.10116 13.24939,-7.52078 0.42462,-0.41963 1.64998,-3.90155 2.72301,-7.73761 l 1.95098,-6.97464 -3.30972,-7.74316 -3.30972,-7.74317 -16.61119,-11.01996 -16.61119,-11.01996 -0.0164,-15.54673 -0.0163,-15.54674 6.35776,-9.54263 6.35776,-9.54263 10.5222,-5.23493 10.52221,-5.23492 4.51247,-7.94662 4.51246,-7.94661 v -20.71655 -20.71654 l -8.91569,-6.694 -8.9157,-6.694 H 148.08802 137.3473 l -5.01506,6.18375 c -18.17233,22.407 -29.81422,49.0949 -34.33842,78.71746 -1.63541,10.70817 -1.62333,34.15853 0.0231,44.65475 1.5294,9.75078 4.39284,21.38034 7.44045,30.21877 2.96733,8.6056 10.16691,23.61664 15.31017,31.92152 l 3.82963,6.18375 h 9.37599 9.37599 l 12.47734,-6.75782 z m 261.49863,-19.98272 v -16.04432 h -64.1773 -64.1773 v 16.04432 16.04432 h 64.1773 64.1773 z m -117.65838,0 v -5.34811 h 5.34811 5.34811 v 5.34811 5.34811 h -5.34811 -5.34811 z m 21.39243,0 v -5.34811 h 5.34811 5.34811 v 5.34811 5.34811 h -5.34811 -5.34811 z m 21.39243,0 v -5.34811 h 5.34811 5.34811 v 5.34811 5.34811 h -5.34811 -5.34811 z m 21.39244,0 v -5.34811 h 21.39243 21.39243 v 5.34811 5.34811 h -21.39243 -21.39243 z m 53.48108,-42.78487 v -16.04432 h -64.1773 -64.1773 v 16.04432 16.04433 h 64.1773 64.1773 z m -117.65838,0 v -5.3481 h 5.34811 5.34811 v 5.3481 5.34811 h -5.34811 -5.34811 z m 21.39243,0 v -5.3481 h 5.34811 5.34811 v 5.3481 5.34811 h -5.34811 -5.34811 z m 21.39243,0 v -5.3481 h 5.34811 5.34811 v 5.3481 5.34811 h -5.34811 -5.34811 z m 21.39244,0 v -5.3481 h 21.39243 21.39243 v 5.3481 5.34811 H 385.23639 363.84396 Z M 278.27423,223.09253 V 169.2772 h 55.15236 c 30.3338,0 55.15236,-0.17284 55.15236,-0.38409 0,-0.78951 -7.69116,-10.56367 -12.99483,-16.51422 -4.6604,-5.22881 -8.48492,-8.88322 -18.19996,-17.39042 -1.43917,-1.26025 -1.50538,-1.23305 -14.15315,5.81506 l -12.70721,7.08124 h -24.08763 -24.08762 l -10.39469,5.78216 c -9.68945,5.38988 -10.43776,5.94548 -11.02954,8.18929 -0.34916,1.32392 -3.07079,12.18414 -6.04807,24.13381 -2.97727,11.94968 -5.69752,22.80479 -6.04501,24.12247 -0.50725,1.92349 -1.87894,3.37315 -6.95813,7.35365 l -6.32633,4.95787 0.007,9.02493 0.007,9.02493 7.21317,14.32452 7.21316,14.32451 13.30787,3.84403 c 7.31934,2.11422 13.68392,3.86584 14.14353,3.89248 0.66199,0.0384 0.83564,-11.13446 0.83564,-53.76689 z m 139.05081,15.71007 v -16.04432 h -64.1773 -64.1773 v 16.04432 16.04433 h 64.1773 64.1773 z m -117.65838,0 v -5.34811 h 5.34811 5.34811 v 5.34811 5.34811 h -5.34811 -5.34811 z m 21.39243,0 v -5.34811 h 5.34811 5.34811 v 5.34811 5.34811 h -5.34811 -5.34811 z m 21.39243,0 v -5.34811 h 5.34811 5.34811 v 5.34811 5.34811 h -5.34811 -5.34811 z m 21.39244,0 v -5.34811 h 21.39243 21.39243 v 5.34811 5.34811 h -21.39243 -21.39243 z m 53.48108,-42.78486 v -16.04433 h -64.1773 -64.1773 v 16.04433 16.04432 h 64.1773 64.1773 z m -117.65838,0 v -5.34811 h 5.34811 5.34811 v 5.34811 5.34811 h -5.34811 -5.34811 z m 21.39243,0 v -5.34811 h 5.34811 5.34811 v 5.34811 5.34811 h -5.34811 -5.34811 z m 21.39243,0 v -5.34811 h 5.34811 5.34811 v 5.34811 5.34811 h -5.34811 -5.34811 z m 21.39244,0 v -5.34811 h 21.39243 21.39243 v 5.34811 5.34811 h -21.39243 -21.39243 z"
   id="path2916" /><text
   xml:space="preserve"
   style="font-style:normal;font-weight:normal;font-size:45.6033px;line-height:1.25;font-family:sans-serif;fill:#00b9f3;fill-opacity:0.843137;stroke:none;stroke-width:1.14008"
   x="191.13681"
   y="335.30151"
   id="text6911"><tspan
     sodipodi:role="line"
     id="tspan6909"
     x="191.13681"
     y="335.30151"
     style="stroke-width:1.14008">VPS</tspan></text></svg>
