<?xml version="1.0" encoding="UTF-8" standalone="no"?>
<!-- Generator: Adobe Illustrator 24.1.2, SVG Export Plug-In . SVG Version: 6.00 Build 0)  -->

<svg
   version="1.1"
   id="Layer_1"
   x="0px"
   y="0px"
   viewBox="0 0 512 512"
   style="enable-background:new 0 0 512 512;"
   xml:space="preserve"
   sodipodi:docname="web-development.svg"
   inkscape:version="1.1 (c68e22c387, 2021-05-23)"
   xmlns:inkscape="http://www.inkscape.org/namespaces/inkscape"
   xmlns:sodipodi="http://sodipodi.sourceforge.net/DTD/sodipodi-0.dtd"
   xmlns="http://www.w3.org/2000/svg"
   xmlns:svg="http://www.w3.org/2000/svg"><defs
   id="defs31"><pattern
     id="EMFhbasepattern"
     patternUnits="userSpaceOnUse"
     width="6"
     height="6"
     x="0"
     y="0" /></defs><sodipodi:namedview
   id="namedview29"
   pagecolor="#ffffff"
   bordercolor="#666666"
   borderopacity="1.0"
   inkscape:pageshadow="2"
   inkscape:pageopacity="0.0"
   inkscape:pagecheckerboard="0"
   showgrid="false"
   inkscape:zoom="0.35907766"
   inkscape:cx="438.62378"
   inkscape:cy="296.59322"
   inkscape:window-width="1366"
   inkscape:window-height="705"
   inkscape:window-x="-8"
   inkscape:window-y="-8"
   inkscape:window-maximized="1"
   inkscape:current-layer="Layer_1"
   showguides="true"
   inkscape:guide-bbox="true"><sodipodi:guide
     position="64.052996,720.86847"
     orientation="1,0"
     id="guide1985" /><sodipodi:guide
     position="456.72571,498.07544"
     orientation="1,0"
     id="guide2067" /><sodipodi:guide
     position="526.34853,83.123417"
     orientation="0,-1"
     id="guide2071" /><sodipodi:guide
     position="459.51063,406.17331"
     orientation="0,-1"
     id="guide21" /><sodipodi:guide
     position="159.77206,394.4078"
     orientation="1,0"
     id="guide23" /><sodipodi:guide
     position="401.92378,150.06708"
     orientation="1,0"
     id="guide25" /></sodipodi:namedview>
<style
   type="text/css"
   id="style2">
	.st0{fill:#FF5000;}
</style>

<path
   style="fill:#00b9f3;stroke-width:0.648237;fill-opacity:0.84313726"
   d="m 122.13992,415.24287 -1.6556,-1.6556 0.28677,-18.92594 c 0.27186,-17.94202 0.37634,-19.26293 2.00979,-25.40831 1.86815,-7.02837 5.45014,-15.07563 9.31705,-20.93163 5.6391,-8.53978 16.31072,-17.90411 25.89415,-22.72209 l 3.99457,-2.00823 0.21897,-13.50647 0.21897,-13.50648 2.44537,-4.94534 c 2.88811,-5.84071 6.61689,-9.46015 12.78821,-12.41323 l 4.21354,-2.01625 24.79509,-0.19745 c 13.6373,-0.10858 24.79508,-0.29478 24.79508,-0.41375 0,-0.11898 -1.56137,-3.45383 -3.46973,-7.41079 -1.90835,-3.95697 -4.46079,-10.12247 -5.67208,-13.70112 l -2.20234,-6.50663 -8.75121,-6.95179 c -11.88227,-9.43901 -14.11411,-11.56847 -15.97636,-15.24345 -5.35494,-10.56747 0.33155,-23.42001 11.84253,-26.76635 l 3.40361,-0.98946 -7.50988,-15.18054 c -7.10345,-14.35898 -7.52631,-15.43663 -7.81355,-19.91227 -0.23232,-3.62016 0.034,-5.93495 1.13357,-9.8537 1.51915,-5.41389 1.43874,-8.64175 -0.29893,-12.00204 -1.85833,-3.59361 -5.11503,-5.61845 -13.56647,-8.43491 -8.45053,-2.81615 -10.10878,-3.96668 -10.10878,-7.0137 0,-2.53207 1.05193,-3.73412 5.64755,-6.45353 20.01773,-11.84527 40.71069,-19.09525 66.30682,-23.23123 8.69339,-1.404743 67.5357,-2.152187 75.24642,-0.955825 11.75657,1.824095 21.39448,6.657505 29.8018,14.945615 10.62622,10.47555 16.1722,23.64157 16.1722,38.3924 0,7.69046 -1.47623,13.45133 -8.15829,31.83702 -3.35663,9.23573 -6.10294,17.01933 -6.10294,17.29689 0,0.27758 1.44047,0.85024 3.20104,1.2726 11.9872,2.87568 18.28635,16.17353 12.79481,27.01056 -1.88218,3.71431 -4.09359,5.82703 -15.99585,15.28192 l -8.75121,6.95179 -2.20234,6.50663 c -1.21129,3.57865 -3.76373,9.74415 -5.67208,13.70112 -1.90836,3.95696 -3.46973,7.29181 -3.46973,7.41079 0,0.11897 11.1738,0.30517 24.83068,0.41375 l 24.83067,0.19745 4.94591,2.44537 c 7.23433,3.57684 11.77251,9.13851 13.87297,17.00175 0.57038,2.1353 0.86841,7.2745 0.87349,15.06219 l 0.008,11.82101 4.05148,2.03696 c 9.66968,4.86161 20.2978,14.19001 25.99347,22.8147 3.74793,5.6753 7.4457,14.03051 9.31985,21.05845 1.57901,5.92116 1.6947,7.40618 1.96458,25.2176 l 0.28677,18.92594 -1.6556,1.6556 -1.65562,1.65561 H 281.37617 123.79553 Z m 39.96055,-44.36926 c 0,-19.60918 -0.1677,-35.65305 -0.37267,-35.65305 -0.20497,0 -2.4657,1.35036 -5.02384,3.0008 -9.28275,5.98899 -17.77926,16.50094 -21.88634,27.07801 -2.90008,7.46864 -3.83255,14.44452 -3.83255,28.67159 v 12.55572 h 15.5577 15.5577 z m 228.1796,-17.38693 c 0,-59.52867 0.21567,-56.71712 -4.72218,-61.55827 -5.13487,-5.0343 2.80186,-4.67743 -104.02596,-4.67743 -71.99628,0 -96.25585,0.1904 -98.1925,0.77062 -1.41465,0.42385 -3.97468,2.03167 -5.68894,3.57292 -5.45591,4.90535 -5.17823,1.58623 -5.17823,61.89216 v 53.04 h 108.90391 108.9039 z m -114.41392,36.61894 c -6.12748,-2.0205 -9.85694,-5.04571 -12.68449,-10.28922 -2.00938,-3.72628 -2.20067,-4.55993 -2.20067,-9.59102 0,-5.03208 0.19107,-5.86434 2.20269,-9.59482 3.87969,-7.19471 9.97087,-10.81616 18.19249,-10.81616 8.41482,0 14.6608,3.82439 18.29179,11.19999 1.83465,3.72671 2.12769,4.99529 2.12769,9.21099 0,4.21649 -0.29292,5.48405 -2.1294,9.21446 -2.32767,4.72817 -5.21156,7.45029 -10.25796,9.68255 -3.79269,1.67768 -10.0568,2.13249 -13.54214,0.98323 z m 9.61259,-10.39266 c 6.6604,-2.78288 8.28406,-11.51471 3.10431,-16.69446 -7.28301,-7.283 -19.2175,-0.75965 -17.30091,9.45662 1.14491,6.10291 8.24699,9.72376 14.1966,7.23784 z m -50.3144,-48.26294 c -9.7184,-9.77949 -10.83307,-11.12625 -10.83307,-13.08877 0,-1.96471 1.12178,-3.31443 11.0089,-13.2457 l 11.00891,-11.05808 3.7303,3.72621 3.7303,3.72621 -8.40954,8.42825 -8.40953,8.42824 8.40195,8.42064 8.40195,8.42065 -3.52738,3.57175 c -1.94006,1.96446 -3.6944,3.57174 -3.89855,3.57174 -0.20414,0 -5.24606,-4.90551 -11.20424,-10.90114 z m 77.32087,7.3294 -3.52738,-3.57175 8.40195,-8.42065 8.40195,-8.42064 -8.40953,-8.42824 -8.40954,-8.42825 3.7303,-3.72621 3.7303,-3.72621 11.00891,11.05808 c 9.88711,9.93127 11.0089,11.28099 11.0089,13.2457 0,1.96252 -1.11467,3.30928 -10.83307,13.08877 -5.95819,5.99563 -11.0001,10.90114 -11.20424,10.90114 -0.20415,0 -1.95849,-1.60728 -3.89855,-3.57174 z m -46.63115,0.35711 c -1.89187,-1.41151 -3.59043,-2.71708 -3.7746,-2.90125 -0.41606,-0.41604 30.12404,-41.20545 30.8516,-41.20545 0.44212,0 6.67887,4.4047 7.74182,5.46765 0.41606,0.41604 -30.12404,41.20545 -30.85161,41.20545 -0.2901,0 -2.07535,-1.15488 -3.96721,-2.5664 z m 165.91321,54.83443 c 0,-14.22707 -0.93247,-21.20295 -3.83255,-28.67159 -4.10709,-10.57707 -12.60359,-21.08902 -21.88634,-27.07801 -2.55814,-1.65044 -4.81887,-3.0008 -5.02385,-3.0008 -0.20496,0 -0.37266,16.04387 -0.37266,35.65305 v 35.65307 h 15.5577 15.5577 z M 322.32581,271.20072 c 8.80934,-16.48454 14.41344,-36.22074 15.82799,-55.74204 l 0.4345,-5.99621 h -5.26952 -5.26951 v 8.83807 c 0,10.99995 -0.61383,13.21153 -4.83982,17.43752 -4.10082,4.10082 -6.52917,4.83982 -15.90378,4.83982 -9.37461,0 -11.80297,-0.739 -15.90378,-4.83982 -3.67423,-3.67422 -4.83982,-6.62482 -4.83982,-12.25162 v -3.65216 h -5.1859 -5.1859 v 3.65216 c 0,5.6268 -1.16559,8.5774 -4.83982,12.25162 -4.10081,4.10082 -6.52918,4.83982 -15.90379,4.83982 -9.3746,0 -11.80296,-0.739 -15.90377,-4.83982 -4.226,-4.22599 -4.83982,-6.43757 -4.83982,-17.43752 v -8.83807 h -5.26951 -5.26952 l 0.4345,5.99621 c 1.41455,19.5213 7.01865,39.2575 15.82799,55.74204 l 3.02775,5.66569 h 37.92189 37.92189 z m -106.9687,-45.00449 c -0.37395,-2.96428 -0.87588,-7.94203 -1.11544,-11.06167 -0.42944,-5.59256 -0.4596,-5.67209 -2.15164,-5.67209 -4.22764,0 -8.50236,4.39984 -8.50236,8.75122 0,3.17672 1.95568,5.93689 7.1072,10.03082 2.66109,2.11479 4.95171,3.73172 5.09024,3.59319 0.13854,-0.13854 -0.054,-2.6772 -0.428,-5.64147 z m 137.80629,1.1949 c 4.66724,-3.69437 6.29949,-6.60616 5.7982,-10.34351 -0.48256,-3.59776 -3.82468,-6.90493 -7.47234,-7.39419 -2.6202,-0.35143 -2.69686,-0.30887 -2.71311,1.50635 -0.0191,2.13569 -1.06699,13.24129 -1.69868,18.00333 -0.4875,3.67489 -0.97444,3.81666 6.08593,-1.77198 z m -88.93607,1.22382 c 1.53273,-1.53273 1.59114,-1.91343 1.59114,-10.37181 v -8.78067 h -10.37181 -10.37179 v 8.78067 c 0,8.45838 0.0584,8.83908 1.59113,10.37181 1.49806,1.49806 2.01165,1.59113 8.78066,1.59113 6.76903,0 7.28262,-0.0931 8.78067,-1.59113 z m 51.859,0 c 1.53273,-1.53273 1.59114,-1.91343 1.59114,-10.37181 v -8.78067 h -10.3718 -10.3718 v 8.78067 c 0,8.45838 0.0584,8.83908 1.59113,10.37181 1.49806,1.49806 2.01165,1.59113 8.78067,1.59113 6.76902,0 7.28261,-0.0931 8.78066,-1.59113 z m -29.52426,-22.74724 c 0,-2.95236 0.28435,-3.87913 1.59113,-5.1859 l 1.59113,-1.59113 h 24.33837 24.33837 v -9.66654 c 0,-16.41857 -1.91746,-22.76419 -10.98642,-36.35833 -2.97312,-4.45663 -5.50093,-8.21579 -5.61734,-8.35368 -0.11642,-0.13791 -2.18941,1.33777 -4.60665,3.27927 -6.44209,5.17426 -10.08986,7.54017 -15.3018,9.92464 -6.39341,2.92499 -11.88146,4.1606 -21.62654,4.86912 -8.77599,0.63806 -13.42483,1.72321 -18.59201,4.33983 -1.73569,0.87894 -10.85152,6.72758 -20.25742,12.99696 l -17.10162,11.39889 v 3.78492 3.78492 h 24.33836 24.33838 l 1.59113,1.59113 c 1.30678,1.30677 1.59113,2.23354 1.59113,5.1859 v 3.59476 h 5.1859 5.1859 z m -51.21076,-34.23279 c 10.16112,-6.76197 20.27566,-13.11567 22.47674,-14.11934 6.40117,-2.91882 12.89452,-4.4213 21.92753,-5.07377 14.30622,-1.03334 19.12401,-3.0907 32.91664,-14.05648 8.16025,-6.48777 9.80447,-7.31655 12.47926,-6.29014 1.51352,0.58079 14.84142,20.77512 17.90459,27.12888 1.37508,2.85225 3.13295,7.75048 3.90638,10.88496 1.62622,6.59055 1.24403,6.94735 5.37005,-5.01332 5.35199,-15.51457 3.27569,-30.11476 -6.04351,-42.49706 -5.68258,-7.55034 -15.92129,-13.98373 -25.37034,-15.94121 -6.99237,-1.44855 -65.6948,-0.98161 -75.71644,0.60227 -18.39333,2.90698 -37.30166,8.81276 -51.63421,16.12727 l -3.21316,1.63982 3.84727,1.82005 c 11.17227,5.28533 16.37365,17.92164 12.2213,29.69064 -1.85742,5.26451 -1.29612,7.88202 3.97407,18.53254 3.4212,6.91388 5.1046,9.68753 5.67208,9.34561 0.44384,-0.26743 9.12062,-6.01875 19.28175,-12.78072 z"
   id="path8276" /></svg>
