<?xml version="1.0" encoding="UTF-8" standalone="no"?>
<!-- Generator: Adobe Illustrator 24.1.2, SVG Export Plug-In . SVG Version: 6.00 Build 0)  -->

<svg
   version="1.1"
   id="Layer_1"
   x="0px"
   y="0px"
   viewBox="0 0 512 512"
   style="enable-background:new 0 0 512 512;"
   xml:space="preserve"
   sodipodi:docname="website-design.svg"
   inkscape:version="1.1 (c68e22c387, 2021-05-23)"
   xmlns:inkscape="http://www.inkscape.org/namespaces/inkscape"
   xmlns:sodipodi="http://sodipodi.sourceforge.net/DTD/sodipodi-0.dtd"
   xmlns="http://www.w3.org/2000/svg"
   xmlns:svg="http://www.w3.org/2000/svg"><defs
   id="defs31"><pattern
     id="EMFhbasepattern"
     patternUnits="userSpaceOnUse"
     width="6"
     height="6"
     x="0"
     y="0" /></defs><sodipodi:namedview
   id="namedview29"
   pagecolor="#ffffff"
   bordercolor="#666666"
   borderopacity="1.0"
   inkscape:pageshadow="2"
   inkscape:pageopacity="0.0"
   inkscape:pagecheckerboard="0"
   showgrid="false"
   inkscape:zoom="0.35907766"
   inkscape:cx="438.62378"
   inkscape:cy="296.59322"
   inkscape:window-width="1366"
   inkscape:window-height="705"
   inkscape:window-x="-8"
   inkscape:window-y="-8"
   inkscape:window-maximized="1"
   inkscape:current-layer="Layer_1"
   showguides="true"
   inkscape:guide-bbox="true"><sodipodi:guide
     position="64.052996,720.86847"
     orientation="1,0"
     id="guide1985" /><sodipodi:guide
     position="456.72571,498.07544"
     orientation="1,0"
     id="guide2067" /><sodipodi:guide
     position="526.34853,83.123417"
     orientation="0,-1"
     id="guide2071" /></sodipodi:namedview>
<style
   type="text/css"
   id="style2">
	.st0{fill:#FF5000;}
</style>

<g
   id="g26"
   transform="matrix(0.60181542,0,0,0.60181542,108.27143,104.70755)"
   style="fill:#00b9f3;fill-opacity:0.843137"><g
     id="g24"
     style="fill:#00b9f3;fill-opacity:0.843137"><path
       class="st0"
       d="M 492.6,35.7 H 417.7 V 8.2 C 417.7,3.7 414,0 409.5,0 H 102.6 c -4.5,0 -8.2,3.7 -8.2,8.2 v 27.5 h -75 C 8.7,35.7 0,44.4 0,55.1 v 358.6 c 0,10.7 8.7,19.4 19.4,19.4 h 178.4 v 62.5 h -77.1 c -4.5,0 -8.2,3.7 -8.2,8.2 0,4.5 3.7,8.2 8.2,8.2 H 355 c 4.5,0 8.2,-3.7 8.2,-8.2 0,-4.5 -3.7,-8.2 -8.2,-8.2 h -40.9 v -62.5 h 33.6 c 4.5,0 8.2,-3.7 8.2,-8.2 0,-4.5 -3.7,-8.2 -8.2,-8.2 H 19.4 c -1.7,0 -3.1,-1.4 -3.1,-3.1 V 55.1 c 0,-1.7 1.4,-3.1 3.1,-3.1 H 94.3 V 350.3 H 42 c -4.5,0 -8.2,3.7 -8.2,8.2 0,4.5 3.7,8.2 8.2,8.2 h 305.8 c 4.5,0 8.2,-3.7 8.2,-8.2 0,-4.5 -3.7,-8.2 -8.2,-8.2 h -64.1 v -66.8 c 0,-4.5 -3.7,-8.2 -8.2,-8.2 H 146.1 c -4.5,0 -8.2,3.7 -8.2,8.2 v 66.8 H 110.7 V 43.8 c 0,0 0,-27.5 0,-27.5 h 290.6 v 74.4 c 0,4.5 3.7,8.2 8.2,8.2 4.5,0 8.2,-3.7 8.2,-8.2 V 52 h 74.9 c 1.7,0 3.1,1.4 3.1,3.1 v 358.6 c 0,1.7 -1.4,3.1 -3.1,3.1 h -21.4 c -4.5,0 -8.2,3.7 -8.2,8.2 0,4.5 3.7,8.2 8.2,8.2 h 21.4 c 10.7,0 19.4,-8.7 19.4,-19.4 V 55.1 c 0,-10.7 -8.7,-19.4 -19.4,-19.4 z m -194.8,460 h -83.6 v -62.5 h 83.6 z m -143.5,-204 h 113 v 58.6 h -113 z"
       id="path4-3"
       style="fill:#00b9f3;fill-opacity:0.843137" /><path
       class="st0"
       d="m 446.5,194.5 c 0,-0.1 0,-0.2 -0.1,-0.4 0,-0.2 -0.1,-0.3 -0.1,-0.5 0,-0.1 0,-0.2 -0.1,-0.3 -0.1,-0.2 -0.1,-0.3 -0.2,-0.5 0,-0.1 0,-0.1 -0.1,-0.2 v -0.1 c 0,0 0,0 0,-0.1 l -29,-72.1 c -1.2,-3.1 -4.2,-5.1 -7.6,-5.1 -3.4,0 -6.3,2 -7.6,5.1 l -29,72.1 c 0,0 -0.1,0.1 -0.1,0.1 0,0.1 0,0.1 -0.1,0.2 -0.1,0.2 -0.1,0.3 -0.2,0.5 0,0.1 0,0.2 -0.1,0.3 0,0.2 -0.1,0.3 -0.1,0.5 0,0.1 0,0.2 -0.1,0.4 0,0.1 0,0.3 -0.1,0.4 0,0.3 0,0.5 0,0.8 v 279.1 c 0,20.5 16.7,37.2 37.2,37.2 20.5,0 37.2,-16.7 37.2,-37.2 v -279 c 0,-0.3 0,-0.5 0,-0.8 0.3,-0.1 0.3,-0.2 0.2,-0.4 z m -57.9,9.4 h 41.7 v 233.3 h -41.7 z m 20.8,-58.5 16.9,42.2 h -33.9 z m 0,350.3 c -11.5,0 -20.9,-9.4 -20.9,-20.9 v -21.2 h 41.7 v 21.2 c 0.1,11.5 -9.3,20.9 -20.8,20.9 z"
       id="path6-9"
       style="fill:#00b9f3;fill-opacity:0.843137" /><path
       class="st0"
       d="m 146.1,117.4 h 219.7 c 4.5,0 8.2,-3.7 8.2,-8.2 V 51.7 c 0,-4.5 -3.7,-8.2 -8.2,-8.2 H 146.1 c -4.5,0 -8.2,3.7 -8.2,8.2 v 57.5 c 0.1,4.6 3.7,8.2 8.2,8.2 z m 8.2,-57.5 h 203.4 v 41.2 H 154.3 Z"
       id="path8-6"
       style="fill:#00b9f3;fill-opacity:0.843137" /><path
       class="st0"
       d="M 365.9,133.8 H 146.1 c -4.5,0 -8.2,3.7 -8.2,8.2 0,4.5 3.7,8.2 8.2,8.2 h 219.7 c 4.5,0 8.2,-3.7 8.2,-8.2 0,-4.6 -3.6,-8.2 -8.1,-8.2 z"
       id="path10"
       style="fill:#00b9f3;fill-opacity:0.843137" /><path
       class="st0"
       d="M 275.4,177.3 H 146.1 c -4.5,0 -8.2,3.7 -8.2,8.2 0,4.5 3.7,8.2 8.2,8.2 h 129.3 c 4.5,0 8.2,-3.7 8.2,-8.2 0,-4.5 -3.7,-8.2 -8.2,-8.2 z"
       id="path12"
       style="fill:#00b9f3;fill-opacity:0.843137" /><path
       class="st0"
       d="m 349.3,177.3 h -41.2 c -4.5,0 -8.2,3.7 -8.2,8.2 0,4.5 3.7,8.2 8.2,8.2 h 41.2 c 4.5,0 8.2,-3.7 8.2,-8.2 0,-4.5 -3.7,-8.2 -8.2,-8.2 z"
       id="path14"
       style="fill:#00b9f3;fill-opacity:0.843137" /><path
       class="st0"
       d="M 275.4,210 H 146.1 c -4.5,0 -8.2,3.7 -8.2,8.2 0,4.5 3.7,8.2 8.2,8.2 h 129.3 c 4.5,0 8.2,-3.7 8.2,-8.2 0,-4.5 -3.7,-8.2 -8.2,-8.2 z"
       id="path16"
       style="fill:#00b9f3;fill-opacity:0.843137" /><path
       class="st0"
       d="m 347.7,210 h -39.6 c -4.5,0 -8.2,3.7 -8.2,8.2 0,4.5 3.7,8.2 8.2,8.2 h 39.6 c 4.5,0 8.2,-3.7 8.2,-8.2 0,-4.5 -3.6,-8.2 -8.2,-8.2 z"
       id="path18"
       style="fill:#00b9f3;fill-opacity:0.843137" /><path
       class="st0"
       d="M 275.4,242.7 H 146.1 c -4.5,0 -8.2,3.7 -8.2,8.2 0,4.5 3.7,8.2 8.2,8.2 h 129.3 c 4.5,0 8.2,-3.7 8.2,-8.2 0,-4.5 -3.7,-8.2 -8.2,-8.2 z"
       id="path20"
       style="fill:#00b9f3;fill-opacity:0.843137" /><path
       class="st0"
       d="m 347.7,242.7 h -39.6 c -4.5,0 -8.2,3.7 -8.2,8.2 0,4.5 3.7,8.2 8.2,8.2 h 39.6 c 4.5,0 8.2,-3.7 8.2,-8.2 0,-4.5 -3.6,-8.2 -8.2,-8.2 z"
       id="path22"
       style="fill:#00b9f3;fill-opacity:0.843137" /></g></g></svg>
