<?xml version="1.0" encoding="UTF-8" standalone="no"?>
<!-- Generator: Adobe Illustrator 24.1.2, SVG Export Plug-In . SVG Version: 6.00 Build 0)  -->

<svg
   version="1.1"
   id="Layer_1"
   x="0px"
   y="0px"
   viewBox="0 0 512 512"
   style="enable-background:new 0 0 512 512;"
   xml:space="preserve"
   sodipodi:docname="website-hosting.svg"
   inkscape:version="1.1 (c68e22c387, 2021-05-23)"
   xmlns:inkscape="http://www.inkscape.org/namespaces/inkscape"
   xmlns:sodipodi="http://sodipodi.sourceforge.net/DTD/sodipodi-0.dtd"
   xmlns="http://www.w3.org/2000/svg"
   xmlns:svg="http://www.w3.org/2000/svg"><defs
   id="defs31"><pattern
     id="EMFhbasepattern"
     patternUnits="userSpaceOnUse"
     width="6"
     height="6"
     x="0"
     y="0" /></defs><sodipodi:namedview
   id="namedview29"
   pagecolor="#ffffff"
   bordercolor="#666666"
   borderopacity="1.0"
   inkscape:pageshadow="2"
   inkscape:pageopacity="0.0"
   inkscape:pagecheckerboard="0"
   showgrid="false"
   inkscape:zoom="0.35907766"
   inkscape:cx="438.62378"
   inkscape:cy="296.59322"
   inkscape:window-width="1366"
   inkscape:window-height="705"
   inkscape:window-x="-8"
   inkscape:window-y="-8"
   inkscape:window-maximized="1"
   inkscape:current-layer="Layer_1"
   showguides="true"
   inkscape:guide-bbox="true"><sodipodi:guide
     position="64.052996,720.86847"
     orientation="1,0"
     id="guide1985" /><sodipodi:guide
     position="456.72571,498.07544"
     orientation="1,0"
     id="guide2067" /><sodipodi:guide
     position="526.34853,83.123417"
     orientation="0,-1"
     id="guide2071" /></sodipodi:namedview>
<style
   type="text/css"
   id="style2">
	.st0{fill:#FF5000;}
</style>

<g
   id="g18"
   transform="matrix(0.67374936,0,0,0.67374936,89.759382,82.899025)"
   style="fill:#00b9f3;fill-opacity:0.843137"><g
     id="g16"
     style="fill:#00b9f3;fill-opacity:0.843137"><path
       class="st0"
       d="m 220.6,442.2 v -131 c 0,-4.5 -3.7,-8.2 -8.2,-8.2 H 158 c -4.5,0 -8.2,3.7 -8.2,8.2 0,4.5 3.7,8.2 8.2,8.2 h 46.3 v 122.8 c -15.6,3.7 -27.2,17.7 -27.2,34.4 0,19.5 15.9,35.4 35.4,35.4 19.5,0 35.4,-15.9 35.4,-35.4 -0.1,-16.7 -11.7,-30.7 -27.3,-34.4 z m -8.2,53.5 c -10.5,0 -19.1,-8.6 -19.1,-19.1 0,-10.5 8.6,-19.1 19.1,-19.1 10.5,0 19.1,8.6 19.1,19.1 0,10.5 -8.6,19.1 -19.1,19.1 z"
       id="path4-5"
       style="fill:#00b9f3;fill-opacity:0.843137" /><path
       class="st0"
       d="m 307.7,442.2 v -131 c 0,-4.5 -3.7,-8.2 -8.2,-8.2 H 245 c -4.5,0 -8.2,3.7 -8.2,8.2 0,4.5 3.7,8.2 8.2,8.2 h 46.3 v 122.8 c -15.6,3.7 -27.2,17.7 -27.2,34.4 0,19.5 15.9,35.4 35.4,35.4 19.5,0 35.4,-15.9 35.4,-35.4 0.1,-16.7 -11.6,-30.7 -27.2,-34.4 z m -8.1,53.5 c -10.5,0 -19.1,-8.6 -19.1,-19.1 0,-10.5 8.6,-19.1 19.1,-19.1 10.5,0 19.1,8.6 19.1,19.1 -0.1,10.5 -8.6,19.1 -19.1,19.1 z"
       id="path6-3"
       style="fill:#00b9f3;fill-opacity:0.843137" /><path
       class="st0"
       d="m 446.6,386.7 c -16.7,0 -30.7,11.6 -34.4,27.2 H 394.9 V 311.2 c 0,-4.5 -3.7,-8.2 -8.2,-8.2 h -54.5 c -4.5,0 -8.2,3.7 -8.2,8.2 0,4.5 3.7,8.2 8.2,8.2 h 46.3 v 102.8 c 0,4.5 3.7,8.2 8.2,8.2 h 25.5 c 3.7,15.6 17.7,27.2 34.4,27.2 19.5,0 35.4,-15.9 35.4,-35.4 0,-19.6 -15.8,-35.5 -35.4,-35.5 z m 0,54.5 c -10.5,0 -19.1,-8.6 -19.1,-19.1 0,-10.5 8.6,-19.1 19.1,-19.1 10.5,0 19.1,8.6 19.1,19.1 0,10.5 -8.6,19.1 -19.1,19.1 z"
       id="path8-7"
       style="fill:#00b9f3;fill-opacity:0.843137" /><path
       class="st0"
       d="m 492.5,176 c -11,-13.7 -26,-23.8 -42.6,-29 C 448,108.3 432,72.2 404.3,44.8 375.2,15.9 336.5,0 295.5,0 241.6,0 191.7,28.1 163.6,73.8 156.8,71.6 149.7,70.6 142.4,70.6 109,70.6 80.3,94.2 73.4,126.3 30.6,137.4 0,176.5 0,221.3 c 0,54.1 44,98.1 98.1,98.1 h 19 V 414 H 99.8 C 96.1,398.4 82.1,386.8 65.4,386.8 45.9,386.8 30,402.7 30,422.2 c 0,19.5 15.9,35.4 35.4,35.4 16.7,0 30.7,-11.6 34.4,-27.2 h 25.5 c 4.5,0 8.2,-3.7 8.2,-8.2 v -111 c 0,-4.5 -3.7,-8.2 -8.2,-8.2 H 98.1 C 53,303 16.3,266.3 16.3,221.2 16.3,182.3 44,148.6 82.1,141 c 3.4,-0.7 6.1,-3.5 6.5,-7 3.5,-26.9 26.6,-47.1 53.8,-47.1 7.5,0 14.7,1.5 21.5,4.4 3.9,1.7 8.4,0.1 10.4,-3.5 24.4,-44.1 70.8,-71.5 121.1,-71.5 75.6,0 137.6,61.5 138.3,137.1 0,3.8 2.7,7 6.3,7.9 32.7,7.6 55.6,36.3 55.6,69.9 0,39.6 -32.2,71.8 -71.8,71.8 h -4.4 c -4.5,0 -8.2,3.7 -8.2,8.2 0,4.5 3.7,8.2 8.2,8.2 h 4.4 c 48.6,0 88.2,-39.5 88.2,-88.2 0,-20 -6.9,-39.6 -19.5,-55.2 z M 65.4,441.2 c -10.5,0 -19.1,-8.6 -19.1,-19.1 0,-10.5 8.6,-19.1 19.1,-19.1 10.5,0 19.1,8.6 19.1,19.1 0,10.5 -8.6,19.1 -19.1,19.1 z"
       id="path10"
       style="fill:#00b9f3;fill-opacity:0.843137" /><path
       class="st0"
       d="m 398.4,161.9 v 0 c 4.6,0 8.2,-3.7 8.2,-8.2 -0.1,-13.5 -2.7,-26.6 -7.6,-39.1 -1.6,-4.2 -6.4,-6.3 -10.6,-4.6 -4.2,1.6 -6.3,6.4 -4.6,10.6 4.2,10.7 6.3,21.9 6.4,33.3 0,4.4 3.7,8 8.2,8 z"
       id="path12"
       style="fill:#00b9f3;fill-opacity:0.843137" /><path
       class="st0"
       d="m 368.5,94.5 c 1.6,2 4,3 6.3,3 1.8,0 3.7,-0.6 5.2,-1.9 3.5,-2.9 4,-8 1.1,-11.5 -21.3,-25.8 -52.5,-40.5 -85.6,-40.5 -4.5,0 -8.2,3.7 -8.2,8.2 0,4.5 3.7,8.2 8.2,8.2 28.2,-0.1 54.8,12.5 73,34.5 z"
       id="path14"
       style="fill:#00b9f3;fill-opacity:0.843137" /></g></g></svg>
