<?xml version="1.0" encoding="UTF-8" standalone="no"?>
<!-- Generator: Adobe Illustrator 24.1.2, SVG Export Plug-In . SVG Version: 6.00 Build 0)  -->

<svg
   version="1.1"
   id="Layer_1"
   x="0px"
   y="0px"
   viewBox="0 0 512 512"
   style="enable-background:new 0 0 512 512;"
   xml:space="preserve"
   sodipodi:docname="wordpress-development.svg"
   inkscape:version="1.1 (c68e22c387, 2021-05-23)"
   xmlns:inkscape="http://www.inkscape.org/namespaces/inkscape"
   xmlns:sodipodi="http://sodipodi.sourceforge.net/DTD/sodipodi-0.dtd"
   xmlns="http://www.w3.org/2000/svg"
   xmlns:svg="http://www.w3.org/2000/svg"><defs
   id="defs31"><pattern
     id="EMFhbasepattern"
     patternUnits="userSpaceOnUse"
     width="6"
     height="6"
     x="0"
     y="0" /></defs><sodipodi:namedview
   id="namedview29"
   pagecolor="#ffffff"
   bordercolor="#666666"
   borderopacity="1.0"
   inkscape:pageshadow="2"
   inkscape:pageopacity="0.0"
   inkscape:pagecheckerboard="0"
   showgrid="false"
   inkscape:zoom="1.4363106"
   inkscape:cx="422.95864"
   inkscape:cy="228.01474"
   inkscape:window-width="1366"
   inkscape:window-height="705"
   inkscape:window-x="-8"
   inkscape:window-y="-8"
   inkscape:window-maximized="1"
   inkscape:current-layer="Layer_1"
   showguides="true"
   inkscape:guide-bbox="true"><sodipodi:guide
     position="64.052996,720.86847"
     orientation="1,0"
     id="guide1985" /><sodipodi:guide
     position="456.72571,498.07544"
     orientation="1,0"
     id="guide2067" /><sodipodi:guide
     position="526.34853,83.123417"
     orientation="0,-1"
     id="guide2071" /><sodipodi:guide
     position="459.51063,406.17331"
     orientation="0,-1"
     id="guide21" /><sodipodi:guide
     position="159.77206,394.4078"
     orientation="1,0"
     id="guide23" /><sodipodi:guide
     position="401.92378,150.06708"
     orientation="1,0"
     id="guide25" /></sodipodi:namedview>
<style
   type="text/css"
   id="style2">
	.st0{fill:#FF5000;}
</style>

<path
   style="fill:#00b9f3;fill-opacity:0.843137;stroke-width:0.600056"
   d="m 267.81311,416.06576 c -53.43372,-5.62344 -99.40771,-37.99111 -122.51094,-86.25307 -7.33791,-15.32843 -11.54548,-28.91187 -14.06775,-45.41431 -1.85763,-12.15389 -1.85594,-33.28226 0.004,-45.41442 4.01145,-26.17135 13.56335,-49.3029 29.13032,-70.54358 6.60836,-9.01704 20.99052,-23.66275 29.84544,-30.39222 20.77445,-15.78811 43.76142,-25.63152 69.27441,-29.66416 11.11014,-1.75608 32.0928,-1.89501 42.81344,-0.28305 18.42225,2.76946 33.48547,7.66927 49.36204,16.05692 14.71345,7.77293 25.28662,15.7479 37.77762,28.49411 12.81611,13.0779 21.11427,24.85946 28.81994,40.91804 7.33714,15.29033 11.55217,28.8876 14.07818,45.41434 1.85542,12.13994 1.85542,33.27438 0,45.41433 -2.53271,16.57063 -6.77531,30.24691 -14.08857,45.41436 -14.96423,31.03547 -39.2469,55.76681 -69.56806,70.85354 -14.98218,7.45447 -28.66889,11.85304 -44.41381,14.27338 -9.16368,1.40869 -28.18771,1.99638 -36.45588,1.12624 z m 28.11975,-15.7423 c 12.77569,-1.41258 31.33948,-6.13369 30.82355,-7.83904 -2.01794,-6.66864 -42.40574,-117.88172 -42.70079,-117.58218 -0.22412,0.22777 -9.42563,27.11689 -20.44808,59.75472 -11.0224,32.63764 -20.1592,59.66308 -20.30399,60.05627 -0.15204,0.41532 0.69351,0.99132 2.01451,1.37291 4.18051,1.20735 16.4911,3.617 21.30578,4.17048 6.78712,0.78014 22.5323,0.81604 29.30902,0.0672 z M 189.59406,296.38967 c -17.74846,-49.55718 -32.46678,-90.33306 -32.70722,-90.61309 -1.0839,-1.26246 -7.63658,19.31071 -9.70896,30.48254 -2.46763,13.30259 -2.76459,33.56971 -0.68782,46.9282 5.80135,37.31554 26.3101,70.76494 56.80565,92.64907 5.37521,3.85725 17.91669,11.32103 18.32475,10.90544 0.1342,-0.13668 -14.27785,-40.79485 -32.0264,-90.35216 z m 176.63043,75.00041 c 6.48905,-5.11848 18.26281,-17.10835 23.28716,-23.71443 18.3333,-24.10532 27.93653,-51.20705 28.86633,-81.46568 0.62689,-20.40049 -2.5389,-39.00969 -9.63962,-56.66427 -4.17386,-10.37788 -7.75845,-17.07607 -6.58051,-12.29693 0.21152,0.85792 0.38656,5.98543 0.38829,11.39455 0.004,14.82765 -1.92434,26.12251 -7.10119,41.54291 -1.28579,3.82997 -11.76287,34.62089 -23.28251,68.42425 -11.51952,33.8034 -21.08487,61.96414 -21.25617,62.57956 -0.38222,1.37091 7.75619,-3.8355 15.31792,-9.79996 z m -103.48472,-69.97907 14.94587,-45.65914 -10.46862,-29.27453 c -5.75773,-16.10097 -10.65482,-29.45206 -10.88254,-29.66896 -0.22804,-0.21673 -3.74534,-0.71498 -7.81705,-1.10665 -9.93724,-0.95607 -11.32782,-1.7499 -11.32782,-6.46691 0,-1.55425 0.4844,-2.60944 1.82292,-3.9726 1.81312,-1.84643 1.84874,-1.8544 6.68958,-1.48445 23.76281,1.81541 40.837,1.91188 61.57225,0.3472 4.69715,-0.35472 9.18605,-0.47954 9.97521,-0.27777 2.46989,0.63125 3.7849,2.49388 3.76411,5.33144 -0.0349,4.82324 -1.3982,5.56423 -12.02745,6.54026 -4.49409,0.41267 -8.17115,0.88672 -8.17115,1.05355 0,0.80888 49.07288,148.48015 49.34157,148.4799 0.17026,-2.3e-4 4.03362,-12.60268 8.58447,-28.00558 15.12307,-51.18502 15.32082,-52.01046 15.2807,-63.79871 -0.0499,-14.08301 -3.33271,-24.01071 -13.85745,-41.88004 -8.58918,-14.5833 -10.96103,-21.40919 -10.40993,-29.95793 0.75163,-11.65974 9.45938,-21.30811 20.48195,-22.69457 l 3.71458,-0.46732 -4.90386,-4.13749 c -18.46325,-15.5775 -40.18331,-25.64798 -65.06072,-30.16505 -10.28054,-1.86669 -32.56277,-2.03309 -42.71427,-0.31847 -36.71599,6.19956 -67.46194,25.05335 -89.34317,54.78672 -2.37113,3.22189 -4.31112,6.10914 -4.31112,6.41605 0,0.67124 24.08423,0.0897 37.66709,-0.90922 9.02799,-0.66408 9.48795,-0.64294 10.99576,0.50341 3.2832,2.49617 2.81919,8.45399 -0.76656,9.84229 -0.80536,0.31181 -5.02123,0.88256 -9.36856,1.2683 -4.3473,0.38613 -7.96002,0.7488 -8.02814,0.80697 -0.13035,0.11058 49.40585,150.50576 49.57737,150.51987 0.0551,0.004 6.82474,-20.53857 15.04498,-45.65111 z"
   id="path10551" /></svg>
